<svg width="140" height="49" viewBox="0 0 140 49" fill="none" xmlns="http://www.w3.org/2000/svg">
<path d="M55.15 6.50112C42.22 1.67512 31.296 7.83612 25.999 11.8651C21.583 7.08112 12.609 -0.0608754 0 2.59712C0 2.59712 11.923 2.90612 20.393 11.8511C20.031 11.7901 19.667 11.7361 19.3 11.7121C18.232 11.6451 17.086 11.8411 16.295 12.5621C16.839 12.5011 17.375 12.7591 17.801 13.1041C18.226 13.4491 18.572 13.8821 18.97 14.2581C20.256 15.4701 22.044 16.0311 23.806 16.1701C25.568 16.3081 27.334 16.0621 29.09 15.8581C30.846 15.6551 32.632 15.4941 34.372 15.8021C34.214 15.7741 33.838 15.2631 33.683 15.1441C33.397 14.9251 33.088 14.7641 32.767 14.6031C32.317 14.3771 31.915 14.1481 31.51 13.8491C31.136 13.5731 30.751 13.3501 30.359 13.1521C42.703 5.50512 55.15 6.50112 55.15 6.50112Z" fill="black"/>
<path d="M103.474 19.1279C95.4663 16.1389 88.7023 19.9549 85.4213 22.4499C82.6863 19.4879 77.1293 15.0639 69.3203 16.7099C69.3203 16.7099 76.7043 16.9009 81.9493 22.4409C81.7253 22.4029 81.5003 22.3699 81.2723 22.3549C80.6113 22.3129 79.9013 22.4349 79.4113 22.8809C79.7483 22.8429 80.0803 23.0029 80.3433 23.2169C80.6063 23.4309 80.8203 23.6989 81.0673 23.9319C81.8643 24.6829 82.9713 25.0299 84.0623 25.1159C85.1533 25.2009 86.2473 25.0489 87.3343 24.9229C88.4213 24.7969 89.5283 24.6979 90.6053 24.8879C90.5073 24.8709 90.2743 24.5539 90.1783 24.4809C90.0013 24.3449 89.8093 24.2459 89.6113 24.1459C89.3323 24.0059 89.0833 23.8639 88.8333 23.6789C88.6023 23.5079 88.3633 23.3699 88.1203 23.2469C95.7653 18.5109 103.474 19.1279 103.474 19.1279Z" fill="black"/>
<path d="M139.592 2.09733C133.537 -0.162673 128.422 2.72233 125.941 4.60933C123.873 2.36933 119.671 -0.974676 113.766 0.269324C113.766 0.269324 119.349 0.414324 123.316 4.60232C123.146 4.57332 122.976 4.54833 122.804 4.53733C122.304 4.50633 121.767 4.59832 121.397 4.93532C121.652 4.90632 121.903 5.02732 122.102 5.18932C122.301 5.35132 122.463 5.55332 122.649 5.72932C123.251 6.29732 124.089 6.55933 124.914 6.62433C125.739 6.68933 126.566 6.57332 127.388 6.47832C128.21 6.38332 129.047 6.30832 129.862 6.45232C129.788 6.43932 129.612 6.20032 129.539 6.14432C129.405 6.04132 129.26 5.96633 129.11 5.89133C128.899 5.78533 128.711 5.67833 128.521 5.53833C128.346 5.40933 128.166 5.30432 127.982 5.21232C133.764 1.63132 139.592 2.09733 139.592 2.09733Z" fill="black"/>
<path d="M74.8651 40.22C67.8511 34.8 61.0851 40.425 57.7181 44.19C55.5801 39.214 51.0231 31.673 43.5781 33.726C43.5781 33.726 50.7661 34.644 54.8401 44.698C54.4791 44.683 54.1181 44.664 53.7581 44.619C52.6971 44.486 51.6571 44.189 50.5891 44.122C49.5211 44.055 48.3751 44.251 47.5841 44.971C48.1281 44.91 48.6641 45.168 49.0891 45.513C49.5151 45.858 49.8601 46.291 50.2581 46.667C51.5441 47.879 53.3321 48.44 55.0941 48.579C56.8561 48.717 58.6221 48.471 60.3781 48.267C62.1341 48.063 63.9201 47.904 65.6601 48.211C65.5021 48.183 65.1261 47.672 64.9711 47.553C64.6851 47.334 64.3761 47.173 64.0551 47.012C63.6051 46.786 63.2031 46.557 62.7981 46.257C62.0351 45.693 61.2361 45.313 60.3761 45.066C66.6271 37.688 74.8651 40.22 74.8651 40.22Z" fill="black"/>
</svg>
