<svg width="26" height="25" viewBox="0 0 26 25" fill="none" xmlns="http://www.w3.org/2000/svg">
<path d="M5 12.0508C5 10.5974 5.36667 9.25078 6.1 8.01078C6.80667 6.81078 7.76 5.85745 8.96 5.15078C10.2 4.41745 11.5467 4.05078 13 4.05078C14.4533 4.05078 15.8 4.41745 17.04 5.15078C18.24 5.85745 19.1933 6.81078 19.9 8.01078C20.6333 9.25078 21 10.5974 21 12.0508C21 13.5041 20.6333 14.8508 19.9 16.0908C19.1933 17.2908 18.24 18.2441 17.04 18.9508C15.8 19.6841 14.4533 20.0508 13 20.0508C11.5467 20.0508 10.2 19.6841 8.96 18.9508C7.76 18.2441 6.80667 17.2908 6.1 16.0908C5.36667 14.8508 5 13.5041 5 12.0508ZM13 2.05078C11.64 2.05078 10.34 2.31078 9.1 2.83078C7.91333 3.33745 6.85667 4.05412 5.93 4.98078C5.00333 5.90745 4.28667 6.96412 3.78 8.15078C3.26 9.39078 3 10.6908 3 12.0508C3 13.4108 3.26 14.7108 3.78 15.9508C4.28667 17.1374 5.00333 18.1941 5.93 19.1208C6.85667 20.0474 7.91333 20.7641 9.1 21.2708C10.34 21.7908 11.64 22.0508 13 22.0508C14.36 22.0508 15.66 21.7908 16.9 21.2708C18.0867 20.7641 19.1433 20.0474 20.07 19.1208C20.9967 18.1941 21.7133 17.1374 22.22 15.9508C22.74 14.7108 23 13.4108 23 12.0508C23 10.6908 22.74 9.39078 22.22 8.15078C21.7133 6.96412 20.9967 5.90745 20.07 4.98078C19.1433 4.05412 18.0867 3.33745 16.9 2.83078C15.66 2.31078 14.36 2.05078 13 2.05078ZM18.46 9.51078L17.04 8.09078L12 13.1308L9.2 10.3508L7.8 11.7508L12 15.9708L18.46 9.51078Z" fill="#4CAF50"/>
</svg>
