<svg width="40" height="40" viewBox="0 0 40 40" fill="none" xmlns="http://www.w3.org/2000/svg">
<rect width="40" height="40" rx="20" fill="#2E7D32" fill-opacity="0.1"/>
<path d="M18.24 19.12C18.5511 19.6711 18.9311 20.1711 19.38 20.62C19.8289 21.0689 20.3289 21.4489 20.88 21.76L21.4667 20.9333C21.5644 20.7911 21.6956 20.7022 21.86 20.6667C22.0244 20.6311 22.1822 20.6533 22.3333 20.7333C23.2844 21.2578 24.3022 21.56 25.3867 21.64C25.5556 21.6578 25.7 21.7289 25.82 21.8533C25.94 21.9778 26 22.1289 26 22.3067V25.28C26 25.4489 25.9422 25.5978 25.8267 25.7267C25.7111 25.8556 25.5689 25.9289 25.4 25.9467C25.0444 25.9822 24.6889 26 24.3333 26C22.9289 26 21.5867 25.7289 20.3067 25.1867C19.0711 24.6622 17.9778 23.9244 17.0267 22.9733C16.0756 22.0222 15.3378 20.9289 14.8133 19.6933C14.2711 18.4133 14 17.0711 14 15.6667C14 15.3111 14.0178 14.9556 14.0533 14.6C14.0711 14.4311 14.1444 14.2889 14.2733 14.1733C14.4022 14.0578 14.5511 14 14.72 14H17.6933C17.8711 14 18.0222 14.06 18.1467 14.18C18.2711 14.3 18.3422 14.4444 18.36 14.6133C18.44 15.6978 18.7422 16.7156 19.2667 17.6667C19.3467 17.8178 19.3689 17.9756 19.3333 18.14C19.2978 18.3044 19.2089 18.4356 19.0667 18.5333L18.24 19.12ZM16.56 18.68L17.8267 17.7733C17.4711 17 17.2267 16.1867 17.0933 15.3333H15.3333V15.6667C15.3333 16.8844 15.5689 18.0533 16.04 19.1733C16.4933 20.2489 17.1356 21.2022 17.9667 22.0333C18.7978 22.8644 19.7511 23.5067 20.8267 23.96C21.9467 24.4311 23.1156 24.6667 24.3333 24.6667H24.6667V22.9067C23.8133 22.7733 23 22.5289 22.2267 22.1733L21.32 23.44C20.9556 23.2978 20.6 23.1289 20.2533 22.9333L20.2133 22.92C19.5644 22.5467 18.9733 22.0933 18.44 21.56C17.9067 21.0267 17.4533 20.4356 17.08 19.7867L17.0667 19.7467C16.8711 19.4 16.7022 19.0444 16.56 18.68Z" fill="#2E7D32"/>
</svg>
