<svg width="56" height="57" viewBox="0 0 56 57" fill="none" xmlns="http://www.w3.org/2000/svg">
<rect y="0.0498047" width="56" height="56" rx="28" fill="#4CAF50" fill-opacity="0.1"/>
<path d="M32.8205 32.1094L33.0005 32.2894L33.1805 32.1094C33.4605 31.8161 33.7938 31.6194 34.1805 31.5194C34.5671 31.4194 34.9538 31.4194 35.3405 31.5194C35.7271 31.6194 36.0671 31.8161 36.3605 32.1094C36.6538 32.4027 36.8505 32.7427 36.9505 33.1294C37.0505 33.5161 37.0505 33.8994 36.9505 34.2794C36.8505 34.6594 36.6538 34.9961 36.3605 35.2894L33.0005 38.6494L29.6405 35.2894C29.3471 34.9961 29.1505 34.6594 29.0505 34.2794C28.9505 33.8994 28.9505 33.5161 29.0505 33.1294C29.1505 32.7427 29.3471 32.4027 29.6405 32.1094C29.9338 31.8161 30.2738 31.6194 30.6605 31.5194C31.0471 31.4194 31.4338 31.4194 31.8205 31.5194C32.2071 31.6194 32.5405 31.8161 32.8205 32.1094ZM26.9805 30.4494V32.4494C25.9005 32.4494 24.8938 32.7227 23.9605 33.2694C23.0538 33.8027 22.3338 34.5227 21.8005 35.4294C21.2538 36.3627 20.9805 37.3694 20.9805 38.4494H18.9805C18.9805 37.0227 19.3338 35.6961 20.0405 34.4694C20.7205 33.2827 21.6471 32.3361 22.8205 31.6294C24.0205 30.8827 25.3271 30.4894 26.7405 30.4494H26.9805ZM26.9805 17.4494C28.0738 17.4494 29.0871 17.7227 30.0205 18.2694C30.9138 18.8027 31.6271 19.5227 32.1605 20.4294C32.7071 21.3494 32.9805 22.3494 32.9805 23.4294C32.9805 24.5094 32.7205 25.5027 32.2005 26.4094C31.6938 27.3027 30.9971 28.0227 30.1105 28.5694C29.2238 29.1161 28.2538 29.4094 27.2005 29.4494H26.9805C25.9005 29.4494 24.8938 29.1761 23.9605 28.6294C23.0538 28.0961 22.3338 27.3761 21.8005 26.4694C21.2538 25.5494 20.9805 24.5494 20.9805 23.4694C20.9805 22.3894 21.2405 21.3961 21.7605 20.4894C22.2671 19.5961 22.9638 18.8761 23.8505 18.3294C24.7371 17.7827 25.7071 17.4894 26.7605 17.4494H26.9805ZM26.9805 19.4494C26.2605 19.4494 25.5938 19.6294 24.9805 19.9894C24.3671 20.3494 23.8805 20.8361 23.5205 21.4494C23.1605 22.0627 22.9805 22.7294 22.9805 23.4494C22.9805 24.1694 23.1605 24.8361 23.5205 25.4494C23.8805 26.0627 24.3671 26.5494 24.9805 26.9094C25.5938 27.2694 26.2605 27.4494 26.9805 27.4494C27.7005 27.4494 28.3671 27.2694 28.9805 26.9094C29.5938 26.5494 30.0805 26.0627 30.4405 25.4494C30.8005 24.8361 30.9805 24.1694 30.9805 23.4494C30.9805 22.7294 30.8005 22.0627 30.4405 21.4494C30.0805 20.8361 29.5938 20.3494 28.9805 19.9894C28.3671 19.6294 27.7005 19.4494 26.9805 19.4494Z" fill="#4CAF50"/>
</svg>
