<svg width="40" height="40" viewBox="0 0 40 40" fill="none" xmlns="http://www.w3.org/2000/svg">
<rect width="40" height="40" rx="20" fill="#4CAF50" fill-opacity="0.1"/>
<path d="M19.9997 26.667C19.093 26.667 18.2263 26.4937 17.3997 26.147C16.6086 25.8092 15.9041 25.3314 15.2863 24.7137C14.6686 24.0959 14.1908 23.3914 13.853 22.6003C13.5063 21.7737 13.333 20.907 13.333 20.0003C13.333 19.0937 13.5063 18.227 13.853 17.4003C14.1908 16.6092 14.6686 15.9048 15.2863 15.287C15.9041 14.6692 16.6086 14.1914 17.3997 13.8537C18.2263 13.507 19.093 13.3337 19.9997 13.3337C20.9063 13.3337 21.773 13.507 22.5997 13.8537C23.3908 14.1914 24.0952 14.6692 24.713 15.287C25.3308 15.9048 25.8086 16.6092 26.1463 17.4003C26.493 18.227 26.6663 19.0937 26.6663 20.0003C26.6663 20.907 26.493 21.7737 26.1463 22.6003C25.8086 23.3914 25.3308 24.0959 24.713 24.7137C24.0952 25.3314 23.3908 25.8092 22.5997 26.147C21.773 26.4937 20.9063 26.667 19.9997 26.667ZM19.9997 25.3337C20.9686 25.3337 21.8663 25.0892 22.693 24.6003C23.493 24.1292 24.1286 23.4937 24.5997 22.6937C25.0886 21.867 25.333 20.9692 25.333 20.0003C25.333 19.0314 25.0886 18.1337 24.5997 17.307C24.1286 16.507 23.493 15.8714 22.693 15.4003C21.8663 14.9114 20.9686 14.667 19.9997 14.667C19.0308 14.667 18.133 14.9114 17.3063 15.4003C16.5063 15.8714 15.8708 16.507 15.3997 17.307C14.9108 18.1337 14.6663 19.0314 14.6663 20.0003C14.6663 20.9692 14.9108 21.867 15.3997 22.6937C15.8708 23.4937 16.5063 24.1292 17.3063 24.6003C18.133 25.0892 19.0308 25.3337 19.9997 25.3337ZM20.6663 20.0003H23.333V21.3337H19.333V16.667H20.6663V20.0003Z" fill="#4CAF50"/>
</svg>
