<svg width="303" height="69" viewBox="0 0 303 69" fill="none" xmlns="http://www.w3.org/2000/svg">
<path d="M299.129 49.525C293.357 61.3005 281.438 68.854 268.312 68.9976C258.691 69.1125 249.615 65.2639 243.096 58.572C237.323 65.7809 228.075 69.6869 218.568 68.4806C210.096 67.418 202.801 62.478 198.607 55.4415C183.874 62.5354 166.613 63.1673 151.132 56.7913C149.955 56.3031 148.806 55.7861 147.686 55.2404C136.657 62.5642 123.647 66.8436 109.918 67.2169C85.477 67.8775 62.5579 56.0446 48.8869 36.17C41.7642 42.8906 31.5971 45.7339 21.8034 43.2352C9.48226 40.1047 0.665028 29.3057 0.0331745 16.6112C-0.16787 12.3893 0.550137 8.28222 2.04361 4.54855C3.68068 11.4415 8.53448 17.2718 15.3413 20.0577C22.9809 23.1882 31.5971 21.8383 37.8582 16.841C44.7224 23.3893 53.6833 27.3814 63.2185 28.042C72.1793 28.6739 81.0253 26.3475 88.4352 21.4937C100.412 30.512 115.921 33.7861 130.683 30.2248C143.607 27.0942 154.636 19.0525 161.529 8.02376C166.297 16.9271 175.459 22.7861 185.741 23.2169C193.036 23.5329 199.986 21.0342 205.357 16.5251C206.994 23.1595 212.106 28.6451 219.028 30.4545C224.714 31.948 230.602 30.7131 235.083 27.3815C238.242 31.5747 242.722 34.6477 247.863 36.055C254.124 37.7783 260.788 36.8879 266.388 33.5851C271.989 30.3109 276.009 24.9115 277.532 18.5929C279.083 12.3031 278.02 5.63993 274.573 0.154297C282.788 1.73393 290.312 6.30051 295.568 13.2222C303.495 23.6765 304.874 37.7209 299.129 49.525Z" fill="#E9E9E9"/>
</svg>
