<svg width="56" height="57" viewBox="0 0 56 57" fill="none" xmlns="http://www.w3.org/2000/svg">
<rect y="0.0498047" width="56" height="56" rx="28" fill="#4CAF50" fill-opacity="0.1"/>
<path d="M35.94 24.0498H37C37.36 24.0498 37.6933 24.1398 38 24.3198C38.3067 24.4998 38.55 24.7431 38.73 25.0498C38.91 25.3565 39 25.6898 39 26.0498V30.0498C39 30.4098 38.91 30.7431 38.73 31.0498C38.55 31.3565 38.3067 31.5998 38 31.7798C37.6933 31.9598 37.36 32.0498 37 32.0498H35.94C35.78 33.3565 35.3267 34.5431 34.58 35.6098C33.8333 36.6765 32.8933 37.5098 31.76 38.1098C30.5867 38.7365 29.3333 39.0498 28 39.0498V37.0498C29.08 37.0498 30.0867 36.7765 31.02 36.2298C31.9267 35.6965 32.6467 34.9765 33.18 34.0698C33.7267 33.1365 34 32.1298 34 31.0498V25.0498C34 23.9698 33.7267 22.9631 33.18 22.0298C32.6467 21.1231 31.9267 20.4031 31.02 19.8698C30.0867 19.3231 29.08 19.0498 28 19.0498C26.92 19.0498 25.9133 19.3231 24.98 19.8698C24.0733 20.4031 23.3533 21.1231 22.82 22.0298C22.2733 22.9631 22 23.9698 22 25.0498V32.0498H19C18.64 32.0498 18.3067 31.9598 18 31.7798C17.6933 31.5998 17.45 31.3565 17.27 31.0498C17.09 30.7431 17 30.4098 17 30.0498V26.0498C17 25.6898 17.09 25.3565 17.27 25.0498C17.45 24.7431 17.6933 24.4998 18 24.3198C18.3067 24.1398 18.64 24.0498 19 24.0498H20.06C20.22 22.7431 20.6733 21.5565 21.42 20.4898C22.1667 19.4231 23.1067 18.5898 24.24 17.9898C25.4133 17.3631 26.6667 17.0498 28 17.0498C29.3333 17.0498 30.5867 17.3631 31.76 17.9898C32.8933 18.5898 33.8333 19.4231 34.58 20.4898C35.3267 21.5565 35.78 22.7431 35.94 24.0498ZM19 26.0498V30.0498H20V26.0498H19ZM36 26.0498V30.0498H37V26.0498H36ZM23.76 31.8298L24.82 30.1298C25.7933 30.7431 26.8533 31.0498 28 31.0498C29.1467 31.0498 30.2067 30.7431 31.18 30.1298L32.24 31.8298C31.6133 32.2298 30.94 32.5331 30.22 32.7398C29.5 32.9465 28.76 33.0498 28 33.0498C27.24 33.0498 26.5 32.9465 25.78 32.7398C25.06 32.5331 24.3867 32.2298 23.76 31.8298Z" fill="#4CAF50"/>
</svg>
