<svg width="40" height="40" viewBox="0 0 40 40" fill="none" xmlns="http://www.w3.org/2000/svg">
<rect width="40" height="40" rx="20" fill="#F3F4F6"/>
<path d="M21.1735 21.0003H22.8402L23.5068 18.3337H21.1735V17.0003C21.1735 16.6981 21.1868 16.4803 21.2135 16.347C21.2668 16.1337 21.3824 15.9692 21.5602 15.8537C21.7735 15.7292 22.0891 15.667 22.5068 15.667H23.5068V13.427C23.3557 13.4092 23.1157 13.3914 22.7868 13.3737C22.3779 13.347 21.9824 13.3337 21.6002 13.3337C20.9868 13.3337 20.4468 13.4559 19.9802 13.7003C19.5135 13.9448 19.1557 14.2937 18.9068 14.747C18.6402 15.2359 18.5068 15.8092 18.5068 16.467V18.3337H16.5068V21.0003H18.5068V26.667H21.1735V21.0003Z" fill="black"/>
</svg>
