<svg width="48" height="49" viewBox="0 0 48 49" fill="none" xmlns="http://www.w3.org/2000/svg">
<rect y="0.525391" width="48" height="48" rx="24" fill="#4CAF50" fill-opacity="0.1"/>
<path d="M23.9997 31.1924C23.093 31.1924 22.2263 31.019 21.3997 30.6724C20.6086 30.3346 19.9041 29.8568 19.2863 29.239C18.6686 28.6213 18.1908 27.9168 17.853 27.1257C17.5063 26.299 17.333 25.4324 17.333 24.5257C17.333 23.619 17.5063 22.7524 17.853 21.9257C18.1908 21.1346 18.6686 20.4302 19.2863 19.8124C19.9041 19.1946 20.6086 18.7168 21.3997 18.379C22.2263 18.0324 23.093 17.859 23.9997 17.859C24.9063 17.859 25.773 18.0324 26.5997 18.379C27.3908 18.7168 28.0952 19.1946 28.713 19.8124C29.3308 20.4302 29.8086 21.1346 30.1463 21.9257C30.493 22.7524 30.6663 23.619 30.6663 24.5257C30.6663 25.4324 30.493 26.299 30.1463 27.1257C29.8086 27.9168 29.3308 28.6213 28.713 29.239C28.0952 29.8568 27.3908 30.3346 26.5997 30.6724C25.773 31.019 24.9063 31.1924 23.9997 31.1924ZM22.4797 29.6324C21.813 28.2279 21.4352 26.7479 21.3463 25.1924H18.7063C18.7952 25.8857 19.0108 26.5346 19.353 27.139C19.6952 27.7435 20.1352 28.2613 20.673 28.6924C21.2108 29.1235 21.813 29.4368 22.4797 29.6324ZM22.693 25.1924C22.7908 26.7924 23.2263 28.2946 23.9997 29.699C24.773 28.2946 25.2086 26.7924 25.3063 25.1924H22.693ZM29.293 25.1924H26.653C26.5641 26.7479 26.1908 28.2279 25.533 29.6324C26.1908 29.4368 26.7886 29.1235 27.3263 28.6924C27.8641 28.2613 28.3041 27.7435 28.6463 27.139C28.9886 26.5346 29.2041 25.8857 29.293 25.1924ZM18.7063 23.859H21.3463C21.4352 22.3035 21.813 20.8235 22.4797 19.419C21.813 19.6146 21.2108 19.9279 20.673 20.359C20.1352 20.7902 19.6952 21.3079 19.353 21.9124C19.0108 22.5168 18.7952 23.1657 18.7063 23.859ZM22.693 23.859H25.3063C25.2086 22.259 24.773 20.7568 23.9997 19.3524C23.2263 20.7568 22.7908 22.259 22.693 23.859ZM25.533 19.419C26.1908 20.8235 26.5641 22.3035 26.653 23.859H29.293C29.2041 23.1657 28.9886 22.5168 28.6463 21.9124C28.3041 21.3079 27.8641 20.7902 27.3263 20.359C26.7886 19.9279 26.1908 19.6146 25.533 19.419Z" fill="#4CAF50"/>
</svg>
