<svg width="56" height="57" viewBox="0 0 56 57" fill="none" xmlns="http://www.w3.org/2000/svg">
<rect y="0.0498047" width="56" height="56" rx="28" fill="#4CAF50" fill-opacity="0.1"/>
<path d="M25.98 33.5498H27V28.5498H29V33.5498H30.02C30.0867 32.9765 30.2733 32.4165 30.58 31.8698C30.8467 31.3765 31.24 30.8431 31.76 30.2698L32.04 29.9698C32.4267 29.5698 32.64 29.3498 32.68 29.3098C33.1067 28.7765 33.4333 28.1898 33.66 27.5498C33.8867 26.9098 34 26.2431 34 25.5498C34 24.4698 33.7267 23.4631 33.18 22.5298C32.6467 21.6231 31.9267 20.9031 31.02 20.3698C30.0867 19.8231 29.08 19.5498 28 19.5498C26.92 19.5498 25.9133 19.8231 24.98 20.3698C24.0733 20.9031 23.3533 21.6231 22.82 22.5298C22.2733 23.4631 22 24.4698 22 25.5498C22 26.2431 22.1133 26.9098 22.34 27.5498C22.5667 28.1898 22.8933 28.7698 23.32 29.2898C23.36 29.3431 23.5733 29.5698 23.96 29.9698L24.24 30.2698C24.76 30.8431 25.1533 31.3765 25.42 31.8698C25.7267 32.4165 25.9133 32.9765 25.98 33.5498ZM26 35.5498V36.5498H30V35.5498H26ZM21.76 30.5498C21.2 29.8565 20.7667 29.0898 20.46 28.2498C20.1533 27.3831 20 26.4831 20 25.5498C20 24.0965 20.3667 22.7498 21.1 21.5098C21.8067 20.3098 22.76 19.3565 23.96 18.6498C25.2 17.9165 26.5467 17.5498 28 17.5498C29.4533 17.5498 30.8 17.9165 32.04 18.6498C33.24 19.3565 34.1933 20.3098 34.9 21.5098C35.6333 22.7498 36 24.0965 36 25.5498C36 26.4831 35.8467 27.3831 35.54 28.2498C35.2333 29.0898 34.8 29.8565 34.24 30.5498C34.1467 30.6698 33.96 30.8698 33.68 31.1498C33.16 31.6965 32.7933 32.1298 32.58 32.4498C32.1933 33.0098 32 33.5431 32 34.0498V36.5498C32 36.9098 31.91 37.2431 31.73 37.5498C31.55 37.8565 31.3067 38.0998 31 38.2798C30.6933 38.4598 30.36 38.5498 30 38.5498H26C25.64 38.5498 25.3067 38.4598 25 38.2798C24.6933 38.0998 24.45 37.8565 24.27 37.5498C24.09 37.2431 24 36.9098 24 36.5498V34.0498C24 33.5431 23.8067 33.0098 23.42 32.4498C23.2067 32.1298 22.84 31.6965 22.32 31.1498C22.04 30.8698 21.8533 30.6698 21.76 30.5498Z" fill="#4CAF50"/>
</svg>
