<svg width="40" height="40" viewBox="0 0 40 40" fill="none" xmlns="http://www.w3.org/2000/svg">
<rect width="40" height="40" rx="20" fill="#F3F4F6"/>
<path d="M19.9997 18.0003C19.6352 18.0003 19.2997 18.0892 18.993 18.267C18.6863 18.4448 18.4441 18.687 18.2663 18.9937C18.0886 19.3003 17.9997 19.6359 17.9997 20.0003C17.9997 20.3648 18.0886 20.7003 18.2663 21.007C18.4441 21.3137 18.6863 21.5559 18.993 21.7337C19.2997 21.9114 19.6352 22.0003 19.9997 22.0003C20.3641 22.0003 20.6997 21.9114 21.0063 21.7337C21.313 21.5559 21.5552 21.3137 21.733 21.007C21.9108 20.7003 21.9997 20.3648 21.9997 20.0003C21.9997 19.6359 21.9108 19.3003 21.733 18.9937C21.5552 18.687 21.313 18.4448 21.0063 18.267C20.6997 18.0892 20.3641 18.0003 19.9997 18.0003ZM19.9997 16.667C20.6041 16.667 21.1619 16.8159 21.673 17.1137C22.1841 17.4114 22.5886 17.8159 22.8863 18.327C23.1841 18.8381 23.333 19.3959 23.333 20.0003C23.333 20.6048 23.1841 21.1625 22.8863 21.6737C22.5886 22.1848 22.1841 22.5892 21.673 22.887C21.1619 23.1848 20.6041 23.3337 19.9997 23.3337C19.3952 23.3337 18.8375 23.1848 18.3263 22.887C17.8152 22.5892 17.4108 22.1848 17.113 21.6737C16.8152 21.1625 16.6663 20.6048 16.6663 20.0003C16.6663 19.3959 16.8152 18.8381 17.113 18.327C17.4108 17.8159 17.8152 17.4114 18.3263 17.1137C18.8375 16.8159 19.3952 16.667 19.9997 16.667ZM24.333 16.4937C24.333 16.7248 24.2508 16.9225 24.0863 17.087C23.9219 17.2514 23.7263 17.3337 23.4997 17.3337C23.273 17.3337 23.0775 17.2514 22.913 17.087C22.7486 16.9225 22.6663 16.727 22.6663 16.5003C22.6663 16.2737 22.7486 16.0781 22.913 15.9137C23.0775 15.7492 23.273 15.667 23.4997 15.667C23.7263 15.667 23.9219 15.7492 24.0863 15.9137C24.2508 16.0781 24.333 16.2714 24.333 16.4937ZM19.9997 14.667C19.1819 14.667 18.6263 14.6692 18.333 14.6737C18.0397 14.6781 17.7019 14.6892 17.3197 14.707C16.8397 14.7248 16.4397 14.7959 16.1197 14.9203C15.8441 15.027 15.6019 15.1848 15.393 15.3937C15.1841 15.6025 15.0263 15.8448 14.9197 16.1203C14.7952 16.4403 14.7241 16.8403 14.7063 17.3203C14.6886 17.6848 14.6775 18.0114 14.673 18.3003C14.6686 18.5892 14.6663 19.1559 14.6663 20.0003C14.6663 20.8181 14.6686 21.3737 14.673 21.667C14.6775 21.9603 14.6886 22.2981 14.7063 22.6803C14.7241 23.1603 14.7952 23.5603 14.9197 23.8803C15.0263 24.1559 15.1841 24.3981 15.393 24.607C15.6019 24.8159 15.8441 24.9692 16.1197 25.067C16.4397 25.2003 16.8397 25.2759 17.3197 25.2937C17.6841 25.3114 18.0108 25.3225 18.2997 25.327C18.5886 25.3314 19.1552 25.3337 19.9997 25.3337C20.8175 25.3337 21.373 25.3314 21.6663 25.327C21.9597 25.3225 22.2975 25.3114 22.6797 25.2937C23.1597 25.2759 23.5597 25.2048 23.8797 25.0803C24.1552 24.9737 24.3975 24.8159 24.6063 24.607C24.8152 24.3981 24.9686 24.1559 25.0663 23.8803C25.1997 23.5603 25.2752 23.1603 25.293 22.6803C25.3108 22.3159 25.3219 21.9892 25.3263 21.7003C25.3308 21.4114 25.333 20.8448 25.333 20.0003C25.333 19.1825 25.3308 18.627 25.3263 18.3337C25.3219 18.0403 25.3108 17.7025 25.293 17.3203C25.2752 16.8403 25.2041 16.4403 25.0797 16.1203C24.973 15.8448 24.8152 15.6025 24.6063 15.3937C24.3975 15.1848 24.1552 15.027 23.8797 14.9203C23.5597 14.7959 23.1597 14.7248 22.6797 14.707C22.3152 14.6892 21.9886 14.6781 21.6997 14.6737C21.4108 14.6692 20.8441 14.667 19.9997 14.667ZM19.9997 13.3337C20.8708 13.3337 21.4663 13.3381 21.7863 13.347C22.053 13.347 22.373 13.3559 22.7463 13.3737C23.3686 13.4003 23.9063 13.5025 24.3597 13.6803C24.813 13.8581 25.2086 14.1159 25.5463 14.4537C25.8841 14.7914 26.1419 15.187 26.3197 15.6403C26.4975 16.0937 26.5997 16.6314 26.6263 17.2537C26.6441 17.6359 26.653 17.9559 26.653 18.2137C26.6619 18.5514 26.6663 19.1514 26.6663 20.0137C26.6663 20.8759 26.6619 21.467 26.653 21.787C26.653 22.0537 26.6441 22.3737 26.6263 22.747C26.5997 23.3692 26.4975 23.907 26.3197 24.3603C26.1419 24.8137 25.8841 25.2092 25.5463 25.547C25.2086 25.8848 24.813 26.1425 24.3597 26.3203C23.9063 26.4981 23.3686 26.6003 22.7463 26.627C22.3641 26.6448 22.0441 26.6537 21.7863 26.6537C21.4486 26.6625 20.8486 26.667 19.9863 26.667C19.1241 26.667 18.533 26.6625 18.213 26.6537C17.9463 26.6537 17.6263 26.6448 17.253 26.627C16.6308 26.6003 16.093 26.4981 15.6397 26.3203C15.1863 26.1425 14.7908 25.8848 14.453 25.547C14.1152 25.2092 13.8575 24.8137 13.6797 24.3603C13.5019 23.907 13.3997 23.3692 13.373 22.747C13.3552 22.3648 13.3463 22.0448 13.3463 21.787C13.3375 21.4492 13.333 20.8492 13.333 19.987C13.333 19.1248 13.3375 18.5337 13.3463 18.2137C13.3463 17.947 13.3552 17.627 13.373 17.2537C13.3997 16.6314 13.5019 16.0937 13.6797 15.6403C13.8575 15.187 14.1152 14.7914 14.453 14.4537C14.7908 14.1159 15.1863 13.8581 15.6397 13.6803C16.093 13.5025 16.6308 13.4003 17.253 13.3737C17.6352 13.3559 17.9552 13.347 18.213 13.347C18.5508 13.3381 19.1463 13.3337 19.9997 13.3337Z" fill="black"/>
</svg>
