<svg width="56" height="57" viewBox="0 0 56 57" fill="none" xmlns="http://www.w3.org/2000/svg">
<rect y="0.0498047" width="56" height="56" rx="28" fill="#4CAF50" fill-opacity="0.1"/>
<path d="M28.9997 18.5498V19.8298L33.9997 21.4898L37.6397 20.2898L38.2597 22.1898L35.2397 23.1898L38.3197 31.7098C37.773 32.2831 37.1264 32.7331 36.3797 33.0598C35.633 33.3865 34.8397 33.5498 33.9997 33.5498C33.1597 33.5498 32.3664 33.3865 31.6197 33.0598C30.873 32.7331 30.2264 32.2831 29.6797 31.7098L32.7597 23.1898L28.9997 21.9298V35.5498H32.9997V37.5498H22.9997V35.5498H26.9997V21.9298L23.2397 23.1898L26.3197 31.7098C25.773 32.2831 25.1264 32.7331 24.3797 33.0598C23.633 33.3865 22.8397 33.5498 21.9997 33.5498C21.1597 33.5498 20.3664 33.3865 19.6197 33.0598C18.873 32.7331 18.2264 32.2831 17.6797 31.7098L20.7597 23.1898L17.7397 22.1898L18.3597 20.2898L21.9997 21.4898L26.9997 19.8298V18.5498H28.9997ZM33.9997 25.6498L32.0397 31.0298C32.6397 31.3765 33.293 31.5498 33.9997 31.5498C34.7064 31.5498 35.3597 31.3765 35.9597 31.0298L33.9997 25.6498ZM21.9997 25.6498L20.0397 31.0298C20.6397 31.3765 21.293 31.5498 21.9997 31.5498C22.7064 31.5498 23.3597 31.3765 23.9597 31.0298L21.9997 25.6498Z" fill="#4CAF50"/>
</svg>
