<svg width="40" height="40" viewBox="0 0 40 40" fill="none" xmlns="http://www.w3.org/2000/svg">
<rect width="40" height="40" rx="20" fill="#F3F4F6"/>
<path d="M16.3204 15.3333C16.3115 15.6089 16.2315 15.8578 16.0804 16.08C15.9293 16.3022 15.7293 16.4644 15.4804 16.5667C15.2315 16.6689 14.9737 16.6933 14.7071 16.64C14.4404 16.5867 14.2115 16.4622 14.0204 16.2667C13.8293 16.0711 13.7115 15.84 13.6671 15.5733C13.6226 15.3067 13.6537 15.0489 13.7604 14.8C13.8671 14.5511 14.036 14.3533 14.2671 14.2067C14.4982 14.06 14.7515 13.9911 15.0271 14C15.3826 14.0089 15.6871 14.1422 15.9404 14.4C16.1937 14.6578 16.3204 14.9689 16.3204 15.3333ZM16.3604 17.6533H13.6937V26H16.3604V17.6533ZM20.5737 17.6533H17.9204V26H20.5471V21.6267C20.5471 21.1556 20.6537 20.7556 20.8671 20.4267C21.0715 20.1244 21.3337 19.9156 21.6537 19.8C21.9737 19.6844 22.2937 19.6756 22.6137 19.7733C22.9337 19.8711 23.1915 20.0667 23.3871 20.36C23.6093 20.6978 23.7204 21.12 23.7204 21.6267V26H26.3604V20.72C26.3604 19.9378 26.1915 19.2756 25.8537 18.7333C25.5604 18.2622 25.1515 17.9067 24.6271 17.6667C24.1471 17.4622 23.6271 17.3733 23.0671 17.4C22.5248 17.4267 22.0226 17.5622 21.5604 17.8067C21.0982 18.0511 20.7604 18.3733 20.5471 18.7733L20.5737 17.6533Z" fill="black"/>
</svg>
