<svg width="40" height="40" viewBox="0 0 40 40" fill="none" xmlns="http://www.w3.org/2000/svg">
<rect width="40" height="40" rx="20" fill="#2E7D32" fill-opacity="0.1"/>
<path d="M20 25.3602L23.2933 22.0536C23.8978 21.458 24.3067 20.7558 24.52 19.9469C24.7244 19.1558 24.7244 18.3647 24.52 17.5736C24.3067 16.7647 23.9 16.0602 23.3 15.4602C22.7 14.8602 21.9956 14.4536 21.1867 14.2402C20.3956 14.0358 19.6044 14.0358 18.8133 14.2402C18.0044 14.4536 17.3 14.8602 16.7 15.4602C16.1 16.0602 15.6933 16.7647 15.48 17.5736C15.2756 18.3647 15.2756 19.1558 15.48 19.9469C15.6933 20.7558 16.1022 21.458 16.7067 22.0536L20 25.3602ZM20 27.2402L15.76 23.0002C14.9867 22.2358 14.4667 21.3291 14.2 20.2802C13.9333 19.2669 13.9333 18.2536 14.2 17.2402C14.4667 16.1913 14.9844 15.2825 15.7533 14.5136C16.5222 13.7447 17.4311 13.2225 18.48 12.9469C19.4933 12.6891 20.5067 12.6891 21.52 12.9469C22.5689 13.2225 23.4778 13.7447 24.2467 14.5136C25.0156 15.2825 25.5333 16.1913 25.8 17.2402C26.0667 18.2536 26.0667 19.2669 25.8 20.2802C25.5333 21.3291 25.0133 22.2358 24.24 23.0002L20 27.2402ZM20 20.0936C20.24 20.0936 20.4622 20.0336 20.6667 19.9136C20.8711 19.7936 21.0333 19.6313 21.1533 19.4269C21.2733 19.2225 21.3333 19.0002 21.3333 18.7602C21.3333 18.5202 21.2733 18.298 21.1533 18.0936C21.0333 17.8891 20.8711 17.7269 20.6667 17.6069C20.4622 17.4869 20.24 17.4269 20 17.4269C19.76 17.4269 19.5378 17.4869 19.3333 17.6069C19.1289 17.7269 18.9667 17.8891 18.8467 18.0936C18.7267 18.298 18.6667 18.5202 18.6667 18.7602C18.6667 19.0002 18.7267 19.2225 18.8467 19.4269C18.9667 19.6313 19.1289 19.7936 19.3333 19.9136C19.5378 20.0336 19.76 20.0936 20 20.0936ZM20 21.4269C19.52 21.4269 19.0756 21.3069 18.6667 21.0669C18.2578 20.8269 17.9333 20.5025 17.6933 20.0936C17.4533 19.6847 17.3333 19.238 17.3333 18.7536C17.3333 18.2691 17.4533 17.8247 17.6933 17.4202C17.9333 17.0158 18.2578 16.6936 18.6667 16.4536C19.0756 16.2136 19.52 16.0936 20 16.0936C20.48 16.0936 20.9244 16.2136 21.3333 16.4536C21.7422 16.6936 22.0667 17.0158 22.3067 17.4202C22.5467 17.8247 22.6667 18.2691 22.6667 18.7536C22.6667 19.238 22.5467 19.6847 22.3067 20.0936C22.0667 20.5025 21.7422 20.8269 21.3333 21.0669C20.9244 21.3069 20.48 21.4269 20 21.4269Z" fill="#2E7D32"/>
</svg>
