<svg width="40" height="40" viewBox="0 0 40 40" fill="none" xmlns="http://www.w3.org/2000/svg">
<rect width="40" height="40" rx="20" fill="#2E7D32" fill-opacity="0.1"/>
<path d="M14.0002 14H26.0002C26.1868 14 26.3446 14.0644 26.4735 14.1933C26.6024 14.3222 26.6668 14.48 26.6668 14.6667V25.3333C26.6668 25.52 26.6024 25.6778 26.4735 25.8067C26.3446 25.9356 26.1868 26 26.0002 26H14.0002C13.8135 26 13.6557 25.9356 13.5268 25.8067C13.3979 25.6778 13.3335 25.52 13.3335 25.3333V14.6667C13.3335 14.48 13.3979 14.3222 13.5268 14.1933C13.6557 14.0644 13.8135 14 14.0002 14ZM25.3335 16.8267L20.0535 21.56L14.6668 16.8133V24.6667H25.3335V16.8267ZM15.0135 15.3333L20.0402 19.7733L25.0002 15.3333H15.0135Z" fill="#2E7D32"/>
</svg>
