<svg width="64" height="65" viewBox="0 0 64 65" fill="none" xmlns="http://www.w3.org/2000/svg">
<rect y="0.0498047" width="64" height="64" rx="32" fill="#4CAF50" fill-opacity="0.1"/>
<path d="M32.5067 19.3835C32.7556 19.3835 32.9867 19.4501 33.2 19.5835C33.4133 19.7168 33.5822 19.899 33.7067 20.1301L34.6667 22.0501H42.6667C43.04 22.0501 43.3556 22.179 43.6133 22.4368C43.8711 22.6946 44 23.0101 44 23.3835V38.0501C44 38.4235 43.8711 38.739 43.6133 38.9968C43.3556 39.2546 43.04 39.3835 42.6667 39.3835H34.16C33.9111 39.3835 33.68 39.3168 33.4667 39.1835C33.2533 39.0501 33.0844 38.8679 32.96 38.6368L32 36.7168H22.6667V44.7168H20V19.3835H32.5067ZM31.68 22.0501H22.6667V34.0501H33.6533L34.9867 36.7168H41.3333V24.7168H33.0133L31.68 22.0501Z" fill="#4CAF50"/>
</svg>
