<svg width="56" height="57" viewBox="0 0 56 57" fill="none" xmlns="http://www.w3.org/2000/svg">
<rect y="0.0498047" width="56" height="56" rx="28" fill="#4CAF50" fill-opacity="0.1"/>
<path d="M22.24 22.5098C21.5333 23.2431 20.9867 24.0765 20.6 25.0098C20.2 25.9831 20 26.9965 20 28.0498C20 29.5031 20.3667 30.8498 21.1 32.0898C21.8067 33.2898 22.76 34.2431 23.96 34.9498C25.2 35.6831 26.5467 36.0498 28 36.0498C29.0667 36.0498 30.0867 35.8498 31.06 35.4498C31.1 35.1165 31.0867 34.7631 31.02 34.3898C30.9667 34.1631 30.9 33.9431 30.82 33.7298C30.58 33.1698 29.8267 32.2231 28.56 30.8898C28.4 30.7165 28.3067 30.5298 28.28 30.3298C28.2667 30.1831 28.2933 29.8898 28.36 29.4498L28.38 29.3498C28.4067 29.1365 28.46 28.9765 28.54 28.8698C28.6467 28.7231 28.84 28.5965 29.12 28.4898C29.4133 28.3698 29.86 28.2631 30.46 28.1698C30.7667 28.1298 31.01 28.1331 31.19 28.1798C31.37 28.2265 31.5267 28.3231 31.66 28.4698C31.74 28.5498 31.8533 28.7031 32 28.9298L32.12 29.0898C32.2667 29.3165 32.42 29.4831 32.58 29.5898C32.6733 29.6698 32.8333 29.7565 33.06 29.8498C33.3 29.9698 33.52 30.0865 33.72 30.1998C33.92 30.3131 34.0667 30.4398 34.16 30.5798C34.2533 30.7198 34.3133 30.9031 34.34 31.1298C34.3533 31.2631 34.36 31.5165 34.36 31.8898V32.0098C34.36 32.3698 34.3267 32.7098 34.26 33.0298C34.82 32.3365 35.2467 31.5698 35.54 30.7298C35.8467 29.8765 36 28.9831 36 28.0498C36 26.9698 35.7933 25.9365 35.38 24.9498C34.98 23.9898 34.4133 23.1431 33.68 22.4098C32.9467 21.6765 32.1067 21.1031 31.16 20.6898C30.2933 21.2765 29.7667 21.6965 29.58 21.9498C29.5533 21.9898 29.5133 22.0765 29.46 22.2098C29.3533 22.4765 29.2533 22.6698 29.16 22.7898C29.0133 23.0165 28.8333 23.1431 28.62 23.1698C28.5133 23.1831 28.3133 23.1831 28.02 23.1698C27.5667 23.1298 27.2267 23.1365 27 23.1898C26.6267 23.2698 26.38 23.4765 26.26 23.8098C26.2067 23.9831 26.1733 24.2098 26.16 24.4898C26.1467 24.8098 26.1733 25.1098 26.24 25.3898C26.32 25.7231 26.4467 25.9965 26.62 26.2098C26.7133 26.3165 26.7267 26.4898 26.66 26.7298C26.6333 26.8498 26.5867 26.9631 26.52 27.0698C26.4667 27.1365 26.42 27.1898 26.38 27.2298C26.3133 27.1898 26.17 27.0431 25.95 26.7898C25.73 26.5365 25.5533 26.3498 25.42 26.2298C25.1933 26.0298 24.9667 25.8965 24.74 25.8298C24.6333 25.8031 24.4467 25.7631 24.18 25.7098L24.16 25.6898C23.7867 25.6098 23.52 25.5431 23.36 25.4898C23.08 25.3965 22.9067 25.2831 22.84 25.1498C22.8 25.0431 22.7733 24.9098 22.76 24.7498C22.7467 24.6565 22.74 24.4965 22.74 24.2698C22.74 23.9898 22.7333 23.7765 22.72 23.6298C22.6933 23.3631 22.6333 23.1298 22.54 22.9298C22.46 22.7698 22.36 22.6298 22.24 22.5098ZM28 38.0498C26.64 38.0498 25.34 37.7898 24.1 37.2698C22.9133 36.7631 21.8567 36.0465 20.93 35.1198C20.0033 34.1931 19.2867 33.1365 18.78 31.9498C18.26 30.7098 18 29.4098 18 28.0498C18 26.6898 18.26 25.3898 18.78 24.1498C19.2867 22.9631 20.0033 21.9065 20.93 20.9798C21.8567 20.0531 22.9133 19.3365 24.1 18.8298C25.34 18.3098 26.64 18.0498 28 18.0498C29.36 18.0498 30.66 18.3098 31.9 18.8298C33.0867 19.3365 34.1433 20.0531 35.07 20.9798C35.9967 21.9065 36.7133 22.9631 37.22 24.1498C37.74 25.3898 38 26.6898 38 28.0498C38 29.4098 37.74 30.7098 37.22 31.9498C36.7133 33.1365 35.9967 34.1931 35.07 35.1198C34.1433 36.0465 33.0867 36.7631 31.9 37.2698C30.66 37.7898 29.36 38.0498 28 38.0498Z" fill="#4CAF50"/>
</svg>
