<svg width="40" height="41" viewBox="0 0 40 41" fill="none" xmlns="http://www.w3.org/2000/svg">
<rect y="0.0507812" width="40" height="40" rx="20" fill="#4CAF50"/>
<path d="M23.9334 13.2106V14.544H18.1334L17.6801 18.8506C18.3734 18.424 19.1245 18.2151 19.9334 18.224C20.7156 18.224 21.4445 18.4195 22.1201 18.8106C22.7778 19.1928 23.2978 19.7084 23.6801 20.3573C24.0712 21.0328 24.2667 21.764 24.2667 22.5506C24.2667 23.3373 24.0712 24.0684 23.6801 24.744C23.2978 25.3928 22.7778 25.9084 22.1201 26.2906C21.4445 26.6906 20.7156 26.8906 19.9334 26.8906C19.2667 26.8906 18.6401 26.744 18.0534 26.4506C17.4756 26.1751 16.9823 25.7884 16.5734 25.2906C16.1645 24.7928 15.8845 24.2284 15.7334 23.5973L17.0267 23.2773C17.1334 23.7128 17.3267 24.1017 17.6067 24.444C17.8867 24.7862 18.229 25.0551 18.6334 25.2506C19.0378 25.4462 19.4712 25.544 19.9334 25.544C20.4756 25.544 20.9778 25.4106 21.4401 25.144C21.9023 24.8773 22.2667 24.5151 22.5334 24.0573C22.8001 23.5995 22.9334 23.0973 22.9334 22.5506C22.9334 22.004 22.8001 21.5017 22.5334 21.044C22.2667 20.5862 21.9023 20.224 21.4401 19.9573C20.9778 19.6906 20.4756 19.5573 19.9334 19.5573C19.2934 19.5484 18.7423 19.6417 18.2801 19.8373C17.8623 20.0062 17.5334 20.2506 17.2934 20.5706L16.2401 19.784L16.9334 13.2106H23.9334Z" fill="white"/>
</svg>
