<svg width="40" height="41" viewBox="0 0 40 41" fill="none" xmlns="http://www.w3.org/2000/svg">
<rect y="0.0507812" width="40" height="40" rx="20" fill="#4CAF50"/>
<path d="M23.9334 13.2106V14.1306L20.4801 18.2506C21.1823 18.3395 21.8223 18.584 22.4001 18.984C22.9778 19.384 23.4312 19.8951 23.7601 20.5173C24.0978 21.1484 24.2667 21.8284 24.2667 22.5573C24.2667 23.3395 24.0712 24.0684 23.6801 24.744C23.2978 25.3928 22.7778 25.9084 22.1201 26.2906C21.4445 26.6906 20.7156 26.8906 19.9334 26.8906C19.2667 26.8906 18.6401 26.744 18.0534 26.4506C17.4756 26.1751 16.9823 25.7884 16.5734 25.2906C16.1645 24.7928 15.8845 24.2284 15.7334 23.5973L17.0267 23.2773C17.1334 23.7128 17.3267 24.1017 17.6067 24.444C17.8867 24.7862 18.229 25.0551 18.6334 25.2506C19.0378 25.4462 19.4712 25.544 19.9334 25.544C20.4756 25.544 20.9778 25.4106 21.4401 25.144C21.9023 24.8773 22.2667 24.5151 22.5334 24.0573C22.8001 23.5995 22.9334 23.0973 22.9334 22.5506C22.9334 22.004 22.8001 21.5017 22.5334 21.044C22.2667 20.5862 21.9023 20.224 21.4401 19.9573C20.9778 19.6906 20.4756 19.5573 19.9334 19.5573C19.4623 19.5573 19.0178 19.6595 18.6001 19.864L18.4534 19.944L17.9867 19.144L21.8401 14.544H16.2667V13.2106H23.9334Z" fill="white"/>
</svg>
