<svg width="40" height="41" viewBox="0 0 40 41" fill="none" xmlns="http://www.w3.org/2000/svg">
<rect y="0.0507812" width="40" height="40" rx="20" fill="#4CAF50"/>
<path d="M22.6667 17.2113C22.6667 16.7313 22.5467 16.2868 22.3067 15.8779C22.0667 15.469 21.7422 15.1468 21.3333 14.9113C20.9244 14.6757 20.48 14.5557 20 14.5513C19.52 14.5468 19.0756 14.6646 18.6667 14.9046C18.2578 15.1446 17.9333 15.469 17.6933 15.8779C17.4533 16.2868 17.3333 16.7357 17.3333 17.2246H16C16 16.4957 16.1822 15.8202 16.5467 15.1979C16.9022 14.5935 17.3822 14.1135 17.9867 13.7579C18.6089 13.3935 19.2822 13.2113 20.0067 13.2113C20.7311 13.2113 21.4 13.3935 22.0133 13.7579C22.6178 14.1135 23.0978 14.5935 23.4533 15.1979C23.8178 15.8202 24 16.4913 24 17.2113C24 17.6824 23.9222 18.1335 23.7667 18.5646C23.6111 18.9957 23.3911 19.3846 23.1067 19.7313L18.2267 25.5446H24V26.8779H16V26.1313L22.04 18.9313C22.2444 18.6913 22.4 18.4268 22.5067 18.1379C22.6133 17.849 22.6667 17.5402 22.6667 17.2113Z" fill="white"/>
</svg>
