<svg width="48" height="49" viewBox="0 0 48 49" fill="none" xmlns="http://www.w3.org/2000/svg">
<rect y="0.525391" width="48" height="48" rx="24" fill="#4CAF50" fill-opacity="0.1"/>
<path d="M24 17.1917L29.48 18.4051C29.6311 18.4406 29.7556 18.5206 29.8533 18.6451C29.9511 18.7695 30 18.9073 30 19.0584V25.7117C30 26.3873 29.8422 27.0184 29.5267 27.6051C29.2111 28.1917 28.7733 28.6717 28.2133 29.0451L24 31.8584L19.7867 29.0451C19.2267 28.6717 18.7889 28.1917 18.4733 27.6051C18.1578 27.0184 18 26.3873 18 25.7117V19.0584C18 18.9073 18.0489 18.7695 18.1467 18.6451C18.2444 18.5206 18.3689 18.4406 18.52 18.4051L24 17.1917ZM24 18.5517L19.3333 19.5917V25.7117C19.3333 26.1651 19.4378 26.5873 19.6467 26.9784C19.8556 27.3695 20.1467 27.6895 20.52 27.9384L24 30.2584L27.48 27.9384C27.8533 27.6895 28.1444 27.3695 28.3533 26.9784C28.5622 26.5873 28.6667 26.1651 28.6667 25.7117V19.5917L24 18.5517ZM26.9733 22.0051L27.9067 22.9517L23.6667 27.1917L20.84 24.3651L21.7867 23.4184L23.6667 25.3117L26.9733 22.0051Z" fill="#4CAF50"/>
</svg>
