<svg width="48" height="49" viewBox="0 0 48 49" fill="none" xmlns="http://www.w3.org/2000/svg">
<rect y="0.525391" width="48" height="48" rx="24" fill="#4CAF50" fill-opacity="0.1"/>
<path d="M30.0003 29.1921H31.3337V30.5254H16.667V29.1921H18.0003V19.1921C18.0003 19.0054 18.0648 18.8476 18.1937 18.7187C18.3225 18.5898 18.4803 18.5254 18.667 18.5254H25.3337C25.5203 18.5254 25.6781 18.5898 25.807 18.7187C25.9359 18.8476 26.0003 19.0054 26.0003 19.1921V29.1921H28.667V23.8587H27.3337V22.5254H29.3337C29.5203 22.5254 29.6781 22.5898 29.807 22.7187C29.9359 22.8476 30.0003 23.0054 30.0003 23.1921V29.1921ZM19.3337 19.8587V29.1921H24.667V19.8587H19.3337ZM20.667 23.8587H23.3337V25.1921H20.667V23.8587ZM20.667 21.1921H23.3337V22.5254H20.667V21.1921Z" fill="#4CAF50"/>
</svg>
