<svg width="48" height="49" viewBox="0 0 48 49" fill="none" xmlns="http://www.w3.org/2000/svg">
<rect y="0.525391" width="48" height="48" rx="24" fill="#4CAF50" fill-opacity="0.1"/>
<path d="M29.2671 24.259L30.2804 26.0324C30.4937 26.3968 30.5982 26.7857 30.5937 27.199C30.5893 27.6124 30.4848 27.999 30.2804 28.359C30.0759 28.719 29.7937 29.0035 29.4337 29.2124C29.0737 29.4213 28.6848 29.5257 28.2671 29.5257H26.8937V31.1924L23.5604 28.859L26.8937 26.5257V28.1924H28.2671C28.4448 28.1924 28.6093 28.1479 28.7604 28.059C29.0004 27.9168 29.1559 27.7124 29.2271 27.4457C29.2982 27.179 29.2671 26.9302 29.1337 26.699L28.1071 24.9257L29.2671 24.259ZM21.0937 22.2857L21.4404 26.339L20.0004 25.499L19.3204 26.699C19.2315 26.8502 19.1871 27.0146 19.1871 27.1924C19.1871 27.4679 19.2826 27.7035 19.4737 27.899C19.6648 28.0946 19.9026 28.1924 20.1871 28.1924H22.2271V29.5257H20.1871C19.7604 29.5257 19.3693 29.4213 19.0137 29.2124C18.6582 29.0035 18.3759 28.7213 18.1671 28.3657C17.9582 28.0102 17.8537 27.6213 17.8537 27.199C17.8537 26.7768 17.9559 26.3879 18.1604 26.0324L18.8404 24.8324L17.4004 24.0057L21.0937 22.2857ZM25.3871 18.1657C25.7515 18.379 26.0359 18.6679 26.2404 19.0324L26.9337 20.219L28.3737 19.379L28.0137 23.4324L24.3337 21.7124L25.7737 20.8857L25.0937 19.699C25.0048 19.539 24.8804 19.4146 24.7204 19.3257C24.4804 19.1924 24.2271 19.1613 23.9604 19.2324C23.6937 19.3035 23.4937 19.459 23.3604 19.699L22.3337 21.459L21.1737 20.7924L22.2004 19.0324C22.4137 18.659 22.7004 18.3702 23.0604 18.1657C23.4204 17.9613 23.8071 17.859 24.2204 17.859C24.6337 17.859 25.0226 17.9613 25.3871 18.1657Z" fill="#4CAF50"/>
</svg>
