<svg width="40" height="40" viewBox="0 0 40 40" fill="none" xmlns="http://www.w3.org/2000/svg">
<rect width="40" height="40" rx="20" fill="#2E7D32" fill-opacity="0.1"/>
<path d="M20.0002 26.666C19.0935 26.666 18.2268 26.4927 17.4002 26.146C16.6091 25.8082 15.9046 25.3305 15.2868 24.7127C14.6691 24.0949 14.1913 23.3905 13.8535 22.5993C13.5068 21.7727 13.3335 20.906 13.3335 19.9993C13.3335 19.0927 13.5068 18.226 13.8535 17.3993C14.1913 16.6082 14.6691 15.9038 15.2868 15.286C15.9046 14.6682 16.6091 14.1905 17.4002 13.8527C18.2268 13.506 19.0935 13.3327 20.0002 13.3327C20.9068 13.3327 21.7735 13.506 22.6002 13.8527C23.3913 14.1905 24.0957 14.6682 24.7135 15.286C25.3313 15.9038 25.8091 16.6082 26.1468 17.3993C26.4935 18.226 26.6668 19.0927 26.6668 19.9993C26.6668 20.906 26.4935 21.7727 26.1468 22.5993C25.8091 23.3905 25.3313 24.0949 24.7135 24.7127C24.0957 25.3305 23.3913 25.8082 22.6002 26.146C21.7735 26.4927 20.9068 26.666 20.0002 26.666ZM20.0002 25.3327C20.9691 25.3327 21.8668 25.0882 22.6935 24.5993C23.4935 24.1282 24.1291 23.4927 24.6002 22.6927C25.0891 21.866 25.3335 20.9682 25.3335 19.9993C25.3335 19.0305 25.0891 18.1327 24.6002 17.306C24.1291 16.506 23.4935 15.8705 22.6935 15.3993C21.8668 14.9105 20.9691 14.666 20.0002 14.666C19.0313 14.666 18.1335 14.9105 17.3068 15.3993C16.5068 15.8705 15.8713 16.506 15.4002 17.306C14.9113 18.1327 14.6668 19.0305 14.6668 19.9993C14.6668 20.9682 14.9113 21.866 15.4002 22.6927C15.8713 23.4927 16.5068 24.1282 17.3068 24.5993C18.1335 25.0882 19.0313 25.3327 20.0002 25.3327ZM20.6668 19.9993H23.3335V21.3327H19.3335V16.666H20.6668V19.9993Z" fill="#2E7D32"/>
</svg>
