<svg width="272" height="272" viewBox="0 0 272 272" fill="none" xmlns="http://www.w3.org/2000/svg">
<path d="M173.684 233.177C227.537 212.164 254.16 151.473 233.147 97.6195C212.134 43.7661 151.442 17.1437 97.5887 38.1567C43.7351 59.1697 17.1126 119.861 38.1257 173.714C59.1387 227.568 119.83 254.19 173.684 233.177Z" fill="white"/>
<path d="M135.607 241.365C77.3345 241.365 29.9248 193.956 29.9248 135.684C29.9248 77.4114 77.3345 30.002 135.607 30.002C193.879 30.002 241.289 77.4114 241.289 135.684C241.289 193.958 193.879 241.365 135.607 241.365ZM135.607 32.0241C78.4489 32.0241 31.9469 78.5258 31.9469 135.684C31.9469 192.841 78.4489 239.341 135.607 239.341C192.765 239.341 239.265 192.841 239.265 135.684C239.265 78.5258 192.765 32.0241 135.607 32.0241Z" fill="#4D4D4D"/>
<path d="M135.594 236.09C191.048 236.09 236.002 191.136 236.002 135.682C236.002 80.2286 191.048 35.2744 135.594 35.2744C80.1395 35.2744 35.1851 80.2286 35.1851 135.682C35.1851 191.136 80.1395 236.09 135.594 236.09Z" fill="#4D4D4D"/>
<path d="M144.299 195.252C177.192 190.446 199.96 159.883 195.154 126.989C190.347 94.0949 159.785 71.3257 126.892 76.1325C93.9986 80.9393 71.2303 111.502 76.0373 144.396C80.8443 177.29 111.406 200.059 144.299 195.252Z" fill="white"/>
<path d="M135.608 192.618C104.213 192.618 78.6714 167.077 78.6714 135.682C78.6714 104.285 104.213 78.7461 135.608 78.7461C167.003 78.7461 192.544 104.288 192.544 135.682C192.544 167.077 167.003 192.618 135.608 192.618ZM135.608 80.7681C105.327 80.7681 80.6935 105.402 80.6935 135.682C80.6935 165.963 105.327 190.594 135.608 190.594C165.888 190.594 190.522 165.963 190.522 135.682C190.522 105.404 165.888 80.7681 135.608 80.7681Z" fill="#4D4D4D"/>
<path d="M135.608 163.006C120.542 163.006 108.283 150.75 108.283 135.683C108.283 120.617 120.542 108.358 135.608 108.358C150.675 108.358 162.933 120.617 162.933 135.683C162.933 150.748 150.675 163.006 135.608 163.006ZM135.608 109.368C121.1 109.368 109.295 121.173 109.295 135.681C109.295 150.19 121.1 161.992 135.608 161.992C150.119 161.992 161.921 150.187 161.921 135.681C161.921 121.173 150.117 109.368 135.608 109.368Z" fill="#4D4D4D"/>
<path d="M135.61 145.892C130.053 145.892 125.534 141.373 125.534 135.816C125.534 130.259 130.053 125.735 135.61 125.735C141.167 125.735 145.691 130.257 145.691 135.816C145.691 141.375 141.167 145.892 135.61 145.892ZM135.61 126.594C130.528 126.594 126.395 130.734 126.395 135.816C126.395 140.898 130.528 145.034 135.61 145.034C140.692 145.034 144.828 140.898 144.828 135.816C144.828 130.734 140.692 126.594 135.61 126.594Z" fill="#4D4D4D"/>
<path d="M135.613 86.4961C126.78 86.4961 119.621 89.2234 119.621 92.5879C119.621 95.9524 126.78 100.855 135.613 100.855C144.445 100.855 151.604 95.9524 151.604 92.5879C151.604 89.2234 144.445 86.4961 135.613 86.4961Z" fill="#4D4D4D"/>
<path d="M88.6981 120.575C85.9685 128.975 86.35 136.629 89.5504 137.668C92.7508 138.708 99.6268 133.413 102.356 125.014C105.086 116.614 102.635 108.289 99.435 107.25C96.2346 106.21 91.4276 112.176 88.6981 120.575Z" fill="#4D4D4D"/>
<path d="M106.609 175.718C113.755 180.908 121.149 182.911 123.128 180.188C125.106 177.465 122.195 169.289 115.051 164.099C107.906 158.908 99.2297 158.665 97.2523 161.388C95.2728 164.109 99.4619 170.525 106.609 175.718Z" fill="#4D4D4D"/>
<path d="M164.596 175.718C171.742 170.527 175.929 164.111 173.952 161.388C171.974 158.665 163.3 158.908 156.153 164.099C149.009 169.289 146.098 177.465 148.076 180.188C150.055 182.909 157.451 180.908 164.596 175.718Z" fill="#4D4D4D"/>
<path d="M182.515 120.575C179.785 112.176 174.978 106.21 171.778 107.25C168.577 108.289 166.127 116.614 168.856 125.014C171.586 133.413 178.462 138.708 181.662 137.668C184.861 136.629 185.242 128.975 182.515 120.575Z" fill="#4D4D4D"/>
<path d="M137.732 113.447C137.576 113.179 137.289 113.013 136.98 113.013L134.25 113.013C133.939 113.013 133.652 113.179 133.496 113.447L132.132 115.81C131.977 116.079 131.977 116.411 132.132 116.68L133.496 119.043C133.652 119.311 133.939 119.477 134.25 119.477L136.98 119.477C137.291 119.477 137.579 119.311 137.732 119.043L139.096 116.68C139.251 116.411 139.251 116.079 139.096 115.81L137.732 113.447ZM135.614 117.941C134.676 117.941 133.916 117.18 133.916 116.243C133.916 115.305 134.676 114.547 135.614 114.547C136.551 114.547 137.31 115.308 137.31 116.243C137.31 117.183 136.551 117.941 135.614 117.941Z" fill="#4D4D4D"/>
<path d="M121.287 118.501C120.986 118.42 120.667 118.505 120.447 118.725L118.517 120.655C118.297 120.874 118.212 121.194 118.291 121.494L118.998 124.13C119.079 124.431 119.314 124.665 119.612 124.746L122.248 125.451C122.548 125.532 122.868 125.445 123.087 125.225L125.018 123.295C125.237 123.076 125.323 122.756 125.242 122.455L124.536 119.82C124.455 119.519 124.221 119.285 123.921 119.204L121.287 118.501ZM122.968 123.176C122.305 123.838 121.232 123.838 120.567 123.176C119.904 122.513 119.904 121.439 120.567 120.776C121.229 120.114 122.303 120.114 122.966 120.776C123.631 121.439 123.631 122.513 122.968 123.176Z" fill="#4D4D4D"/>
<path d="M113.237 133.699C112.969 133.855 112.803 134.14 112.803 134.451V137.181C112.803 137.492 112.969 137.779 113.237 137.935L115.6 139.299C115.869 139.454 116.201 139.454 116.47 139.299L118.833 137.935C119.101 137.779 119.268 137.492 119.268 137.181V134.451C119.268 134.14 119.101 133.855 118.833 133.699L116.47 132.335C116.201 132.18 115.869 132.18 115.6 132.335L113.237 133.699ZM117.733 135.817C117.733 136.755 116.973 137.515 116.035 137.515C115.098 137.515 114.339 136.755 114.339 135.817C114.339 134.88 115.098 134.119 116.035 134.119C116.973 134.119 117.733 134.88 117.733 135.817Z" fill="#4D4D4D"/>
<path d="M118.292 150.135C118.211 150.436 118.297 150.755 118.516 150.975L120.446 152.905C120.666 153.125 120.986 153.21 121.286 153.131L123.922 152.424C124.222 152.343 124.457 152.108 124.538 151.808L125.243 149.172C125.324 148.872 125.236 148.552 125.017 148.333L123.087 146.402C122.867 146.183 122.547 146.098 122.247 146.178L119.611 146.884C119.311 146.965 119.076 147.199 118.995 147.5L118.292 150.135ZM122.969 148.454C123.632 149.117 123.632 150.191 122.969 150.853C122.307 151.516 121.233 151.516 120.57 150.853C119.907 150.191 119.907 149.117 120.57 148.454C121.231 147.792 122.307 147.792 122.969 148.454Z" fill="#4D4D4D"/>
<path d="M133.496 158.185C133.652 158.454 133.937 158.62 134.248 158.62H136.978C137.289 158.62 137.574 158.454 137.732 158.185L139.096 155.822C139.251 155.554 139.251 155.221 139.096 154.953L137.732 152.59C137.576 152.321 137.289 152.155 136.978 152.155H134.25C133.939 152.155 133.652 152.321 133.498 152.59L132.132 154.953C131.977 155.221 131.977 155.554 132.132 155.822L133.496 158.185ZM135.614 153.689C136.551 153.689 137.312 154.45 137.312 155.388C137.312 156.325 136.551 157.084 135.614 157.084C134.676 157.084 133.916 156.323 133.916 155.388C133.916 154.448 134.676 153.689 135.614 153.689Z" fill="#4D4D4D"/>
<path d="M149.934 153.128C150.234 153.209 150.554 153.124 150.773 152.903L152.704 150.972C152.923 150.753 153.008 150.433 152.93 150.133L152.222 147.497C152.141 147.196 151.907 146.962 151.606 146.881L148.971 146.174C148.67 146.093 148.351 146.178 148.131 146.399L146.201 148.33C145.981 148.549 145.896 148.869 145.977 149.169L146.682 151.805C146.763 152.106 146.997 152.34 147.298 152.421L149.934 153.128ZM148.253 148.454C148.915 147.791 149.989 147.791 150.652 148.454C151.314 149.116 151.314 150.19 150.652 150.853C149.989 151.515 148.915 151.515 148.253 150.853C147.59 150.19 147.59 149.116 148.253 148.454Z" fill="#4D4D4D"/>
<path d="M157.969 137.933C158.238 137.777 158.404 137.492 158.404 137.181V134.451C158.404 134.14 158.238 133.855 157.969 133.699L155.606 132.335C155.338 132.18 155.005 132.18 154.737 132.335L152.374 133.699C152.105 133.855 151.939 134.142 151.939 134.451V137.181C151.939 137.492 152.105 137.779 152.374 137.933L154.737 139.299C155.005 139.454 155.338 139.454 155.606 139.299L157.969 137.933ZM153.473 135.817C153.473 134.88 154.234 134.119 155.171 134.119C156.109 134.119 156.867 134.88 156.867 135.817C156.867 136.755 156.109 137.515 155.171 137.515C154.234 137.513 153.473 136.752 153.473 135.817Z" fill="#4D4D4D"/>
<path d="M152.927 121.495C153.008 121.195 152.923 120.875 152.704 120.656L150.773 118.725C150.554 118.506 150.234 118.421 149.934 118.5L147.298 119.207C146.997 119.288 146.763 119.522 146.684 119.823L145.977 122.459C145.896 122.759 145.981 123.079 146.203 123.298L148.133 125.228C148.353 125.448 148.672 125.533 148.973 125.454L151.608 124.749C151.909 124.668 152.143 124.434 152.224 124.133L152.927 121.495ZM148.25 123.177C147.588 122.514 147.588 121.44 148.25 120.777C148.913 120.115 149.987 120.115 150.65 120.777C151.312 121.44 151.312 122.514 150.65 123.177C149.989 123.839 148.913 123.839 148.25 123.177Z" fill="#4D4D4D"/>
<path d="M175.102 46.7171C175.102 46.7171 173.585 48.9139 171.311 52.2102C170.152 53.8423 168.799 55.7451 167.35 57.7843C166.606 58.7367 165.963 60.0172 164.648 60.6799C163.406 61.3511 161.829 61.43 160.508 60.844C159.302 60.2666 158.096 59.6891 156.907 59.1224C156.315 58.839 155.729 58.5556 155.147 58.2764C154.557 57.9952 153.962 57.5456 153.549 57.0385C152.675 56.0136 152.341 54.6626 152.49 53.4609C152.618 52.2442 153.329 51.2258 153.984 50.5098C156.577 47.4586 158.307 45.4258 158.307 45.4258C158.307 45.4258 156.702 47.5587 154.295 50.7591C153.643 51.5347 153.093 52.4104 153.003 53.5163C152.914 54.5923 153.259 55.7579 154.018 56.6421C154.731 57.5541 156.008 57.9334 157.19 58.5257C158.379 59.0776 159.585 59.638 160.793 60.1984C161.912 60.7119 163.265 60.6629 164.343 60.0961C165.458 59.5719 166.076 58.4107 166.856 57.422C168.368 55.4297 169.781 53.5696 170.991 51.9758C173.459 48.8201 175.102 46.7171 175.102 46.7171Z" fill="white"/>
<path d="M142.285 38.5742C142.285 38.5742 141.611 41.1567 140.601 45.0326C140.069 46.963 139.449 49.2131 138.784 51.6251C138.411 52.7736 138.245 54.1992 137.237 55.2688C136.299 56.3235 134.844 56.9393 133.402 56.8392C132.07 56.7092 130.738 56.5792 129.428 56.4514C128.773 56.3874 128.126 56.3214 127.486 56.2596C126.837 56.1957 126.123 55.9762 125.56 55.6438C124.388 54.979 123.613 53.8242 123.34 52.6437C123.044 51.4569 123.363 50.2551 123.734 49.358C125.128 45.6036 126.057 43.1021 126.057 43.1021C126.057 43.1021 125.279 45.6548 124.111 49.4859C123.764 50.4383 123.547 51.4483 123.841 52.518C124.124 53.5599 124.846 54.5358 125.863 55.1068C126.845 55.7184 128.175 55.6395 129.487 55.7908C130.793 55.9038 132.119 56.0167 133.444 56.1296C134.671 56.2298 135.926 55.7184 136.745 54.8192C137.614 53.9456 137.797 52.6437 138.192 51.4462C138.931 49.0555 139.623 46.8267 140.216 44.9133C141.46 41.112 142.285 38.5742 142.285 38.5742Z" fill="white"/>
<path d="M108.674 42.1406C108.674 42.1406 108.925 44.7977 109.3 48.7844C109.46 50.7788 109.647 53.1077 109.848 55.6007C109.89 56.8067 110.221 58.2023 109.639 59.5532C109.119 60.8658 107.962 61.9419 106.573 62.3424C105.277 62.6748 103.982 63.0093 102.707 63.3375C102.07 63.4994 101.44 63.6613 100.815 63.8211C100.183 63.9831 99.4389 64.0215 98.7954 63.9021C97.4679 63.6784 96.3429 62.8581 95.6845 61.8417C95.0005 60.8274 94.8897 59.5895 94.9323 58.62C94.9579 54.6163 94.9749 51.9464 94.9749 51.9464C94.9749 51.9464 95.1177 54.612 95.3308 58.6115C95.3308 59.6257 95.4714 60.6484 96.1128 61.554C96.7349 62.4361 97.7492 63.1053 98.8977 63.297C100.031 63.5357 101.252 63.0072 102.539 62.7004C103.805 62.3595 105.09 62.0121 106.375 61.6648C107.561 61.3388 108.567 60.4311 109.03 59.3061C109.547 58.1874 109.275 56.9004 109.236 55.6411C109.115 53.1418 109.002 50.8107 108.904 48.8099C108.765 44.8105 108.674 42.1406 108.674 42.1406Z" fill="white"/>
<path d="M78.3031 56.9912C78.3031 56.9912 79.4474 59.4032 81.1648 63.0212C81.9979 64.8409 82.9695 66.9654 84.0115 69.2389C84.4653 70.3575 85.2516 71.5571 85.1685 73.0252C85.128 74.4358 84.4078 75.8421 83.2402 76.6944C82.1364 77.4508 81.0348 78.2072 79.9481 78.9509C79.4048 79.3216 78.8678 79.6881 78.3372 80.0525C77.7981 80.4211 77.112 80.713 76.4664 80.8174C75.1411 81.0625 73.8051 80.6747 72.8377 79.946C71.8469 79.2279 71.3206 78.1007 71.0287 77.1759C69.6842 73.4045 68.7871 70.8902 68.7871 70.8902C68.7871 70.8902 69.8333 73.347 71.3994 77.031C71.7468 77.9835 72.2283 78.8976 73.1403 79.5283C74.0267 80.1441 75.2093 80.4275 76.3535 80.2123C77.4998 80.0482 78.4672 79.1362 79.571 78.4054C80.6427 77.6511 81.7316 76.8862 82.8204 76.1212C83.8261 75.4095 84.4589 74.2121 84.508 72.9954C84.6124 71.7681 83.9156 70.6515 83.449 69.4818C82.4795 67.1741 81.576 65.0221 80.8004 63.1769C79.3025 59.4672 78.3031 56.9912 78.3031 56.9912Z" fill="white"/>
<path d="M54.8473 81.335C54.8473 81.335 56.748 83.21 59.5989 86.0226C61.0031 87.4481 62.6438 89.1101 64.3996 90.8914C65.2093 91.7885 66.3577 92.645 66.7818 94.0535C67.2271 95.3937 67.0311 96.962 66.2256 98.1595C65.4479 99.2483 64.6702 100.335 63.9031 101.407C63.5196 101.939 63.1403 102.47 62.7653 102.992C62.386 103.523 61.8384 104.032 61.2695 104.351C60.1082 105.033 58.7189 105.129 57.5619 104.773C56.3857 104.437 55.5057 103.559 54.9155 102.79C52.3607 99.7064 50.6582 97.6502 50.6582 97.6502C50.6582 97.6502 52.48 99.602 55.2138 102.528C55.8658 103.305 56.6308 103.998 57.7047 104.279C58.7488 104.554 59.9548 104.415 60.9584 103.823C61.979 103.278 62.5756 102.089 63.364 101.025C64.114 99.9514 64.8747 98.8584 65.6354 97.7674C66.3364 96.7553 66.5218 95.4129 66.1532 94.2538C65.8314 93.0648 64.7938 92.2551 63.9564 91.3154C62.256 89.4787 60.6707 87.7656 59.3113 86.2954C56.6329 83.3187 54.8473 81.335 54.8473 81.335Z" fill="white"/>
<path d="M41.1343 112.23C41.1343 112.23 43.5612 113.343 47.2027 115.009C49.0117 115.868 51.1191 116.869 53.3798 117.943C54.4474 118.51 55.8196 118.921 56.6996 120.099C57.5753 121.205 57.929 122.746 57.5817 124.148C57.2237 125.437 56.8637 126.724 56.5099 127.994C56.3331 128.627 56.1562 129.253 55.9836 129.873C55.8089 130.502 55.468 131.167 55.0418 131.663C54.1853 132.701 52.9111 133.265 51.7029 133.327C50.482 133.412 49.3548 132.888 48.5366 132.368C45.0826 130.344 42.7792 128.993 42.7792 128.993C42.7792 128.993 45.1593 130.203 48.7284 132.017C49.6062 132.524 50.563 132.914 51.6667 132.809C52.7427 132.711 53.8294 132.168 54.5688 131.269C55.3423 130.406 55.4957 129.085 55.8728 127.817C56.2095 126.551 56.5526 125.264 56.8935 123.979C57.2046 122.788 56.9212 121.463 56.1775 120.5C55.468 119.492 54.2172 119.085 53.1071 118.491C50.8826 117.346 48.8051 116.279 47.0259 115.363C43.4909 113.485 41.1343 112.23 41.1343 112.23Z" fill="white"/>
<path d="M38.8071 145.958C38.8071 145.958 41.4685 146.173 45.4594 146.495C47.4517 146.685 49.7764 146.904 52.2672 147.138C53.4626 147.305 54.8945 147.224 56.1239 148.029C57.3257 148.768 58.1844 150.096 58.3378 151.532C58.4422 152.866 58.5445 154.2 58.6468 155.512C58.6958 156.166 58.7469 156.816 58.7938 157.458C58.8449 158.11 58.7512 158.849 58.521 159.461C58.0715 160.731 57.0657 161.694 55.9535 162.167C54.8369 162.665 53.5968 162.559 52.6508 162.348C48.711 161.628 46.0858 161.146 46.0858 161.146C46.0858 161.146 48.7365 161.47 52.7104 161.954C53.7098 162.13 54.7411 162.169 55.7446 161.694C56.7205 161.233 57.5579 160.351 57.9436 159.252C58.3762 158.178 58.0672 156.885 57.9884 155.563C57.8712 154.259 57.754 152.932 57.6346 151.607C57.5196 150.379 56.7994 149.233 55.7723 148.583C54.7602 147.88 53.4477 147.925 52.199 147.744C49.7167 147.43 47.4005 147.136 45.4147 146.885C41.4514 146.331 38.8071 145.958 38.8071 145.958Z" fill="white"/>
<path d="M48.1665 178.441C48.1665 178.441 50.7405 177.732 54.6014 176.671C56.5383 176.166 58.7991 175.577 61.2196 174.947C62.4001 174.695 63.7169 174.126 65.1488 174.465C66.5316 174.751 67.7909 175.703 68.4259 177.001C68.9799 178.22 69.5318 179.436 70.0773 180.636C70.3479 181.235 70.6163 181.827 70.8827 182.415C71.1533 183.01 71.3195 183.736 71.311 184.39C71.3216 185.737 70.708 186.988 69.8237 187.812C68.9437 188.662 67.7441 188.986 66.7809 189.112C62.8326 189.781 60.2011 190.229 60.2011 190.229C60.2011 190.229 62.8028 189.626 66.7021 188.722C67.7014 188.545 68.6837 188.23 69.4636 187.439C70.2243 186.675 70.708 185.558 70.6952 184.395C70.7335 183.238 70.0005 182.127 69.4742 180.913C68.9181 179.726 68.3535 178.522 67.7888 177.316C67.2604 176.204 66.1929 175.373 65.0039 175.111C63.8128 174.795 62.594 175.288 61.3603 175.543C58.9205 176.097 56.6427 176.613 54.6909 177.056C50.7767 177.887 48.1665 178.441 48.1665 178.441Z" fill="white"/>
<path d="M68.0576 205.771C68.0576 205.771 70.2331 204.224 73.4996 201.906C75.1467 200.77 77.0687 199.442 79.1291 198.023C80.1519 197.382 81.196 196.4 82.6577 196.227C84.0533 196.023 85.5641 196.485 86.606 197.489C87.5414 198.443 88.479 199.398 89.3994 200.34C89.8576 200.808 90.3135 201.275 90.7631 201.735C91.2213 202.202 91.6261 202.828 91.8434 203.444C92.3143 204.706 92.1652 206.091 91.6155 207.169C91.0806 208.268 90.0621 208.982 89.2013 209.432C85.7196 211.411 83.3992 212.732 83.3992 212.732C83.3992 212.732 85.6365 211.277 88.9925 209.093C89.8703 208.586 90.6864 207.953 91.1488 206.945C91.6027 205.965 91.6751 204.752 91.2639 203.661C90.9038 202.56 89.8363 201.767 88.9264 200.806C87.9974 199.881 87.0556 198.942 86.1138 198.002C85.238 197.137 83.9489 196.722 82.7429 196.884C81.5156 196.994 80.5376 197.874 79.4679 198.537C77.3648 199.892 75.4003 201.156 73.7191 202.24C70.3205 204.356 68.0576 205.771 68.0576 205.771Z" fill="white"/>
<path d="M96.1035 224.644C96.1035 224.644 97.6206 222.447 99.8942 219.151C101.053 217.519 102.406 215.616 103.857 213.577C104.599 212.624 105.245 211.344 106.557 210.681C107.799 210.01 109.378 209.931 110.697 210.517C111.903 211.094 113.109 211.672 114.298 212.239C114.891 212.522 115.477 212.805 116.058 213.084C116.648 213.366 117.243 213.815 117.656 214.322C118.53 215.347 118.864 216.698 118.715 217.9C118.59 219.117 117.876 220.135 117.222 220.851C114.628 223.902 112.898 225.935 112.898 225.935C112.898 225.935 114.503 223.802 116.911 220.602C117.563 219.826 118.112 218.95 118.202 217.845C118.291 216.768 117.946 215.605 117.188 214.719C116.474 213.807 115.2 213.427 114.015 212.835C112.826 212.283 111.62 211.723 110.412 211.162C109.293 210.649 107.94 210.7 106.862 211.265C105.747 211.789 105.129 212.95 104.35 213.939C102.837 215.931 101.424 217.791 100.214 219.385C97.7463 222.541 96.1035 224.644 96.1035 224.644Z" fill="white"/>
<path d="M128.912 232.789C128.912 232.789 129.585 230.207 130.595 226.331C131.128 224.4 131.748 222.15 132.412 219.738C132.785 218.59 132.952 217.164 133.959 216.095C134.897 215.04 136.352 214.424 137.795 214.524C139.127 214.654 140.456 214.784 141.769 214.912C142.423 214.976 143.071 215.042 143.71 215.104C144.36 215.168 145.074 215.387 145.636 215.72C146.808 216.384 147.584 217.539 147.854 218.72C148.15 219.907 147.831 221.108 147.46 222.003C146.066 225.758 145.137 228.259 145.137 228.259C145.137 228.259 145.915 225.706 147.083 221.875C147.43 220.923 147.648 219.913 147.353 218.843C147.07 217.801 146.348 216.825 145.331 216.254C144.349 215.643 143.019 215.722 141.707 215.57C140.401 215.46 139.075 215.345 137.75 215.232C136.523 215.132 135.268 215.641 134.447 216.542C133.578 217.416 133.395 218.718 133.001 219.915C132.259 222.306 131.569 224.535 130.976 226.448C129.736 230.251 128.912 232.789 128.912 232.789Z" fill="white"/>
<path d="M162.537 229.22C162.537 229.22 162.286 226.563 161.911 222.577C161.751 220.582 161.564 218.253 161.363 215.76C161.321 214.554 160.99 213.159 161.572 211.806C162.092 210.493 163.249 209.417 164.638 209.019C165.934 208.686 167.229 208.352 168.503 208.024C169.141 207.862 169.771 207.7 170.393 207.54C171.026 207.378 171.772 207.34 172.413 207.461C173.741 207.685 174.866 208.505 175.524 209.519C176.208 210.534 176.319 211.772 176.277 212.741C176.251 216.745 176.234 219.415 176.234 219.415C176.234 219.415 176.091 216.749 175.878 212.75C175.878 211.735 175.737 210.713 175.096 209.807C174.474 208.925 173.46 208.256 172.311 208.064C171.178 207.825 169.957 208.354 168.67 208.661C167.404 209.002 166.119 209.349 164.834 209.696C163.647 210.022 162.642 210.93 162.179 212.055C161.662 213.174 161.934 214.461 161.973 215.72C162.094 218.219 162.207 220.55 162.305 222.551C162.446 226.553 162.537 229.22 162.537 229.22Z" fill="white"/>
<path d="M192.902 214.369C192.902 214.369 191.758 211.957 190.041 208.339C189.207 206.52 188.236 204.395 187.194 202.122C186.74 201.003 185.954 199.803 186.037 198.335C186.077 196.925 186.798 195.518 187.965 194.666C189.069 193.91 190.171 193.153 191.257 192.41C191.798 192.039 192.338 191.672 192.868 191.308C193.407 190.939 194.093 190.648 194.739 190.543C196.064 190.298 197.4 190.686 198.368 191.415C199.358 192.133 199.885 193.26 200.177 194.185C201.521 197.956 202.418 200.47 202.418 200.47C202.418 200.47 201.372 198.014 199.806 194.329C199.459 193.377 198.977 192.463 198.065 191.832C197.179 191.216 195.998 190.933 194.852 191.148C193.706 191.312 192.738 192.224 191.634 192.955C190.563 193.709 189.474 194.474 188.385 195.239C187.379 195.951 186.746 197.149 186.697 198.365C186.593 199.592 187.29 200.709 187.756 201.879C188.726 204.186 189.629 206.339 190.405 208.184C191.903 211.893 192.902 214.369 192.902 214.369Z" fill="white"/>
<path d="M216.359 190.029C216.359 190.029 214.458 188.154 211.607 185.341C210.203 183.916 208.562 182.254 206.806 180.47C205.997 179.573 204.848 178.717 204.424 177.308C203.979 175.968 204.175 174.4 204.98 173.202C205.758 172.114 206.536 171.027 207.303 169.955C207.686 169.422 208.066 168.892 208.441 168.37C208.82 167.839 209.368 167.33 209.936 167.01C211.098 166.328 212.487 166.235 213.644 166.588C214.82 166.925 215.7 167.803 216.29 168.572C218.845 171.658 220.548 173.712 220.548 173.712C220.548 173.712 218.726 171.762 215.992 168.834C215.34 168.057 214.575 167.364 213.501 167.083C212.457 166.808 211.251 166.944 210.248 167.539C209.227 168.084 208.63 169.273 207.842 170.336C207.092 171.41 206.331 172.503 205.568 173.594C204.867 174.607 204.682 175.949 205.051 177.108C205.372 178.297 206.41 179.107 207.247 180.046C208.948 181.883 210.533 183.596 211.893 185.066C214.573 188.043 216.359 190.029 216.359 190.029Z" fill="white"/>
<path d="M230.079 159.131C230.079 159.131 227.652 158.019 224.01 156.353C222.204 155.494 220.094 154.493 217.833 153.419C216.766 152.852 215.394 152.441 214.514 151.263C213.638 150.157 213.284 148.616 213.631 147.212C213.989 145.923 214.349 144.636 214.703 143.366C214.88 142.733 215.057 142.107 215.23 141.487C215.404 140.858 215.745 140.193 216.171 139.697C217.028 138.659 218.302 138.094 219.51 138.033C220.731 137.947 221.858 138.472 222.677 138.991C226.131 141.016 228.434 142.367 228.434 142.367C228.434 142.367 226.054 141.156 222.485 139.343C221.607 138.836 220.65 138.446 219.544 138.55C218.468 138.648 217.382 139.192 216.642 140.091C215.869 140.954 215.715 142.275 215.338 143.543C215.002 144.808 214.658 146.095 214.318 147.38C214.006 148.571 214.29 149.895 215.033 150.86C215.743 151.868 216.994 152.275 218.104 152.869C220.328 154.013 222.406 155.081 224.185 155.997C227.722 157.879 230.079 159.131 230.079 159.131Z" fill="white"/>
<path d="M232.405 125.408C232.405 125.408 229.743 125.193 225.752 124.871C223.76 124.681 221.435 124.462 218.945 124.227C217.749 124.061 216.317 124.144 215.086 123.337C213.884 122.597 213.025 121.27 212.872 119.834C212.768 118.5 212.665 117.166 212.563 115.854C212.514 115.199 212.463 114.549 212.416 113.908C212.365 113.256 212.459 112.517 212.689 111.905C213.14 110.635 214.144 109.672 215.256 109.199C216.373 108.701 217.613 108.807 218.559 109.018C222.499 109.738 225.124 110.22 225.124 110.22C225.124 110.22 222.473 109.896 218.499 109.412C217.5 109.235 216.469 109.197 215.465 109.672C214.489 110.132 213.652 111.015 213.266 112.112C212.834 113.186 213.143 114.479 213.221 115.8C213.339 117.104 213.456 118.432 213.575 119.757C213.69 120.982 214.41 122.131 215.437 122.781C216.449 123.484 217.762 123.439 219.011 123.62C221.493 123.936 223.809 124.227 225.795 124.479C229.76 125.035 232.405 125.408 232.405 125.408Z" fill="white"/>
<path d="M223.045 92.9212C223.045 92.9212 220.471 93.6286 216.61 94.6919C214.673 95.1968 212.413 95.785 209.992 96.4157C208.812 96.6671 207.495 97.236 206.063 96.8972C204.68 96.6117 203.421 95.6592 202.786 94.3616C202.232 93.1428 201.68 91.9261 201.134 90.7265C200.864 90.1278 200.595 89.5354 200.329 88.9474C200.058 88.3529 199.892 87.6263 199.899 86.9721C199.888 85.6255 200.502 84.3747 201.386 83.5501C202.266 82.6999 203.466 82.3761 204.429 82.2503C208.377 81.5813 211.008 81.1338 211.008 81.1338C211.008 81.1338 208.407 81.7368 204.507 82.6402C203.508 82.815 202.526 83.1325 201.746 83.923C200.985 84.6879 200.502 85.8023 200.514 86.9678C200.476 88.1248 201.209 89.235 201.735 90.4495C202.291 91.6363 202.856 92.8403 203.421 94.0463C203.947 95.1585 205.017 95.9916 206.206 96.2516C207.397 96.5669 208.616 96.0748 209.849 95.8191C212.289 95.2651 214.567 94.7494 216.519 94.3062C220.433 93.4752 223.045 92.9212 223.045 92.9212Z" fill="white"/>
<path d="M203.142 65.5929C203.142 65.5929 200.967 67.1398 197.702 69.4581C196.055 70.5938 194.133 71.9191 192.073 73.3403C191.05 73.9817 190.006 74.964 188.544 75.1366C187.149 75.3412 185.638 74.8788 184.596 73.8752C183.661 72.9206 182.723 71.9639 181.8 71.0242C181.342 70.5554 180.886 70.0888 180.437 69.6285C179.979 69.1619 179.574 68.5355 179.356 67.9197C178.885 66.6583 179.035 65.2733 179.584 64.1951C180.119 63.0956 181.138 62.3818 181.999 61.9322C185.48 59.9527 187.801 58.6338 187.801 58.6338C187.801 58.6338 185.563 60.0891 182.207 62.2732C181.329 62.7803 180.513 63.4131 180.051 64.4231C179.597 65.4033 179.525 66.6157 179.936 67.7066C180.296 68.8082 181.364 69.6009 182.273 70.5619C183.202 71.4866 184.144 72.4262 185.086 73.3659C185.962 74.231 187.251 74.6465 188.457 74.4846C189.684 74.3738 190.662 73.4938 191.732 72.8311C193.835 71.476 195.8 70.2124 197.481 69.1278C200.879 67.0056 203.142 65.5929 203.142 65.5929Z" fill="white"/>
</svg>
