<svg width="40" height="40" viewBox="0 0 40 40" fill="none" xmlns="http://www.w3.org/2000/svg">
<rect width="40" height="40" rx="20" fill="#F3F4F6"/>
<path d="M26.8002 15.7862C26.2846 16.0084 25.7513 16.1551 25.2002 16.2262C25.4846 16.0484 25.7335 15.8262 25.9469 15.5595C26.1602 15.2929 26.3158 14.9995 26.4135 14.6795C25.8624 15.0084 25.2758 15.2351 24.6535 15.3595C24.3869 15.0751 24.0758 14.8573 23.7202 14.7062C23.3646 14.5551 22.9958 14.4795 22.6135 14.4795C22.1069 14.4795 21.6402 14.604 21.2135 14.8529C20.7869 15.1018 20.4491 15.4395 20.2002 15.8662C19.9513 16.2929 19.8269 16.7595 19.8269 17.2662C19.8269 17.4795 19.8491 17.6929 19.8935 17.9062C18.7558 17.844 17.6802 17.5551 16.6669 17.0395C15.6891 16.5329 14.8491 15.8484 14.1469 14.9862C13.898 15.4218 13.7735 15.8884 13.7735 16.3862C13.7735 16.8662 13.8846 17.3106 14.1069 17.7195C14.3291 18.1284 14.6313 18.4573 15.0135 18.7062C14.5691 18.6973 14.1469 18.5818 13.7469 18.3595V18.3995C13.7469 18.844 13.8446 19.2573 14.0402 19.6395C14.2358 20.0218 14.5046 20.344 14.8469 20.6062C15.1891 20.8684 15.5691 21.044 15.9869 21.1329C15.7469 21.1951 15.5024 21.2262 15.2535 21.2262C15.0758 21.2262 14.9024 21.2084 14.7335 21.1729C14.9113 21.7329 15.238 22.1929 15.7135 22.5529C16.1891 22.9129 16.7291 23.1018 17.3335 23.1195C16.8358 23.5018 16.2913 23.7951 15.7002 23.9995C15.1091 24.204 14.498 24.3062 13.8669 24.3062C13.6446 24.3062 13.4224 24.2929 13.2002 24.2662C13.8402 24.6751 14.5246 24.9862 15.2535 25.1995C15.9824 25.4129 16.7246 25.5195 17.4802 25.5195C18.7069 25.5195 19.8402 25.2795 20.8802 24.7995C21.8313 24.3551 22.6624 23.7329 23.3735 22.9329C24.0313 22.1862 24.538 21.3373 24.8935 20.3862C25.2402 19.4618 25.4135 18.5284 25.4135 17.5862C25.4135 17.4706 25.4091 17.3506 25.4002 17.2262C25.9513 16.8262 26.418 16.3462 26.8002 15.7862Z" fill="black"/>
</svg>
