<svg width="56" height="57" viewBox="0 0 56 57" fill="none" xmlns="http://www.w3.org/2000/svg">
<rect y="0.0498047" width="56" height="56" rx="28" fill="#4CAF50" fill-opacity="0.1"/>
<path d="M33 31.4898V38.3498C33 38.4964 32.95 38.6164 32.85 38.7098C32.75 38.8031 32.6333 38.8498 32.5 38.8498C32.4067 38.8498 32.32 38.8298 32.24 38.7898L28 36.2498L23.76 38.7898C23.64 38.8564 23.5133 38.8731 23.38 38.8398C23.2467 38.8064 23.1467 38.7298 23.08 38.6098C23.0267 38.5298 23 38.4431 23 38.3498V31.4898C22.0667 30.7431 21.34 29.8364 20.82 28.7698C20.2733 27.6631 20 26.4898 20 25.2498C20 23.7964 20.3667 22.4498 21.1 21.2098C21.8067 19.9964 22.76 19.0364 23.96 18.3298C25.2 17.6098 26.5467 17.2498 28 17.2498C29.4533 17.2498 30.8 17.6098 32.04 18.3298C33.24 19.0364 34.1933 19.9964 34.9 21.2098C35.6333 22.4498 36 23.7964 36 25.2498C36 26.4898 35.7267 27.6631 35.18 28.7698C34.66 29.8364 33.9333 30.7431 33 31.4898ZM25 32.6498V35.7098L28 33.9098L31 35.7098V32.6498C30.04 33.0498 29.04 33.2498 28 33.2498C26.96 33.2498 25.96 33.0564 25 32.6698V32.6498ZM28 31.2498C29.08 31.2498 30.0867 30.9764 31.02 30.4298C31.9267 29.8964 32.6467 29.1764 33.18 28.2698C33.7267 27.3364 34 26.3264 34 25.2398C34 24.1531 33.7267 23.1431 33.18 22.2098C32.6467 21.3031 31.9267 20.5898 31.02 20.0698C30.0867 19.5231 29.08 19.2498 28 19.2498C26.92 19.2498 25.9133 19.5231 24.98 20.0698C24.0733 20.5898 23.3533 21.3031 22.82 22.2098C22.2733 23.1431 22 24.1531 22 25.2398C22 26.3264 22.2733 27.3364 22.82 28.2698C23.3533 29.1764 24.0733 29.8964 24.98 30.4298C25.9133 30.9764 26.92 31.2498 28 31.2498Z" fill="#4CAF50"/>
</svg>
