<svg width="64" height="65" viewBox="0 0 64 65" fill="none" xmlns="http://www.w3.org/2000/svg">
<rect y="0.0498047" width="64" height="64" rx="32" fill="#4CAF50" fill-opacity="0.1"/>
<path d="M31.9999 20.0498C34.3466 20.0498 36.5688 20.5831 38.6666 21.6498C40.6755 22.6809 42.3688 24.1076 43.7466 25.9298C45.1244 27.752 46.0177 29.792 46.4266 32.0498C46.0177 34.3076 45.1244 36.3476 43.7466 38.1698C42.3688 39.992 40.6755 41.4187 38.6666 42.4498C36.5688 43.5165 34.3466 44.0498 31.9999 44.0498C29.6532 44.0498 27.431 43.5165 25.3332 42.4498C23.3244 41.4187 21.631 39.992 20.2532 38.1698C18.8755 36.3476 17.9821 34.3076 17.5732 32.0498C17.9821 29.792 18.8755 27.752 20.2532 25.9298C21.631 24.1076 23.3244 22.6809 25.3332 21.6498C27.431 20.5831 29.6532 20.0498 31.9999 20.0498ZM31.9999 41.3831C33.8488 41.3831 35.6088 40.9742 37.2799 40.1565C38.8977 39.3742 40.271 38.272 41.3999 36.8498C42.5288 35.4276 43.2977 33.8276 43.7066 32.0498C43.2977 30.272 42.5288 28.672 41.3999 27.2498C40.271 25.8276 38.8977 24.7254 37.2799 23.9431C35.6088 23.1254 33.8488 22.7165 31.9999 22.7165C30.151 22.7165 28.391 23.1254 26.7199 23.9431C25.1021 24.7254 23.7288 25.8276 22.5999 27.2498C21.471 28.672 20.7021 30.272 20.2932 32.0498C20.7021 33.8276 21.471 35.4276 22.5999 36.8498C23.7288 38.272 25.1021 39.3742 26.7199 40.1565C28.391 40.9742 30.151 41.3831 31.9999 41.3831ZM31.9999 38.0498C30.9155 38.0498 29.9155 37.7787 28.9999 37.2365C28.0844 36.6942 27.3555 35.9654 26.8132 35.0498C26.271 34.1342 25.9999 33.1342 25.9999 32.0498C25.9999 30.9654 26.271 29.9654 26.8132 29.0498C27.3555 28.1342 28.0844 27.4054 28.9999 26.8631C29.9155 26.3209 30.9155 26.0498 31.9999 26.0498C33.0844 26.0498 34.0844 26.3209 34.9999 26.8631C35.9155 27.4054 36.6444 28.1342 37.1866 29.0498C37.7288 29.9654 37.9999 30.9654 37.9999 32.0498C37.9999 33.1342 37.7288 34.1342 37.1866 35.0498C36.6444 35.9654 35.9155 36.6942 34.9999 37.2365C34.0844 37.7787 33.0844 38.0498 31.9999 38.0498ZM31.9999 35.3831C32.6044 35.3831 33.1599 35.232 33.6666 34.9298C34.1732 34.6276 34.5777 34.2231 34.8799 33.7165C35.1821 33.2098 35.3332 32.6542 35.3332 32.0498C35.3332 31.4454 35.1821 30.8898 34.8799 30.3831C34.5777 29.8765 34.1732 29.472 33.6666 29.1698C33.1599 28.8676 32.6044 28.7165 31.9999 28.7165C31.3955 28.7165 30.8399 28.8676 30.3332 29.1698C29.8266 29.472 29.4221 29.8765 29.1199 30.3831C28.8177 30.8898 28.6666 31.4454 28.6666 32.0498C28.6666 32.6542 28.8177 33.2098 29.1199 33.7165C29.4221 34.2231 29.8266 34.6276 30.3332 34.9298C30.8399 35.232 31.3955 35.3831 31.9999 35.3831Z" fill="#4CAF50"/>
</svg>
