<svg width="20" height="87" viewBox="0 0 20 87" fill="none" xmlns="http://www.w3.org/2000/svg">
<path d="M3.15804 59.68C1.33688 58.1683 -0.00187302 56.3726 -0.00187302 56.3726C-0.00187302 56.3726 2.07003 60.4028 2.14512 62.9704C2.22353 65.6387 3.32324 68.6994 7.96904 71.3573C7.94918 72.1777 7.92933 72.9809 7.91049 73.7517C7.75801 81.3719 7.65618 86.4517 7.65618 86.4517H12.3417C12.3417 86.4517 12.2399 81.3717 12.0874 73.7517C12.0683 72.9808 12.0489 72.1777 12.0288 71.3573C16.6749 68.6992 17.7746 65.6385 17.8527 62.9703C17.9281 60.4025 20 56.3725 20 56.3725C20 56.3725 18.661 58.1682 16.8401 59.6798C17.3352 58.5845 17.5267 57.5004 17.5567 56.477C17.6292 54.006 19.623 50.1278 19.623 50.1278C19.623 50.1278 18.2242 52.0061 16.3582 53.4945C16.9949 52.2953 17.228 51.1018 17.2606 49.9834C17.3304 47.6091 19.2457 43.8832 19.2457 43.8832C19.2457 43.8832 17.7578 45.8688 15.8285 47.3254C16.6481 46.0188 16.9287 44.7081 16.9646 43.4899C17.0313 41.2125 18.8687 37.6384 18.8687 37.6384C18.8687 37.6384 17.2314 39.8299 15.1869 41.2351C16.2795 39.7987 16.6291 38.339 16.6683 36.9965C16.7322 34.816 18.4914 31.3939 18.4914 31.3939C18.4914 31.3939 16.8602 33.5862 14.8451 34.926C14.6333 35.0668 14.4482 35.2174 14.2542 35.3648C15.8656 33.7376 16.3269 32.0399 16.3719 30.503C16.4333 28.4194 18.1142 25.1492 18.1142 25.1492C18.1142 25.1492 16.5552 27.2443 14.63 28.5246C12.8411 29.7137 11.743 31.1632 11.062 32.5729C11.0467 31.9784 11.0314 31.388 11.0164 30.8026C15.08 28.6779 16.0122 26.1765 16.0759 24.0098C16.1342 22.0229 17.7372 18.9046 17.7372 18.9046C17.7372 18.9046 16.2508 20.9022 14.4146 22.1231C12.6039 23.327 11.5357 24.8104 10.8986 26.2313C10.8792 25.4836 10.8601 24.7429 10.8415 24.0199C14.783 21.989 15.7187 19.5934 15.7798 17.5165C15.8353 15.6264 17.3604 12.6601 17.3604 12.6601C17.3604 12.6601 15.9463 14.5605 14.1997 15.7217C12.3671 16.9402 11.3239 18.4612 10.7354 19.8897C10.7178 19.2018 10.7 18.5244 10.6835 17.872C10.6781 17.6636 10.6735 17.4648 10.6687 17.2602C14.5192 15.3193 15.4255 13.0163 15.4843 11.023C15.5367 9.22974 16.9834 6.41542 16.9834 6.41542C16.9834 6.41542 15.6419 8.2184 13.9847 9.32022C12.1004 10.5729 11.1035 12.1602 10.5737 13.6102C10.5597 13.1342 10.5452 12.6775 10.53 12.2352C11.3048 11.0009 13.2688 7.27184 11.0752 4.04151C10.1255 2.64276 9.85561 0.65625 9.85561 0.65625C9.85561 0.65625 9.66978 3.6142 8.73604 5.30699C7.74731 7.10027 7.31888 9.32652 9.48191 11.8421C9.4618 12.4027 9.44246 12.9919 9.42439 13.6099C8.8949 12.1601 7.89777 10.5729 6.01374 9.32022C4.35653 8.2184 3.01497 6.41542 3.01497 6.41542C3.01497 6.41542 4.46166 9.22974 4.51435 11.023C4.5729 13.0163 5.47915 15.3193 9.32994 17.2602C9.3251 17.4648 9.32002 17.6636 9.31493 17.872C9.29813 18.5244 9.28081 19.2017 9.26299 19.8894C8.67393 18.4609 7.63123 16.9402 5.79862 15.7217C4.05206 14.5603 2.63797 12.6601 2.63797 12.6601C2.63797 12.6601 4.16279 15.6264 4.21829 17.5165C4.27913 19.5934 5.21517 21.989 9.15633 24.0199C9.13749 24.7431 9.11865 25.4835 9.0993 26.2313C8.46238 24.8104 7.39398 23.327 5.58326 22.1231C3.74734 20.9024 2.26069 18.9046 2.26069 18.9046C2.26069 18.9046 3.86368 22.0228 3.92198 24.0098C3.98562 26.1765 4.91809 28.6779 8.98144 30.8024C8.96642 31.3879 8.95089 31.9782 8.93562 32.5727C8.25491 31.163 7.15673 29.7135 5.36816 28.5246C3.44264 27.2443 1.88369 25.1492 1.88369 25.1492C1.88369 25.1492 3.56458 28.4194 3.62593 30.503C3.67098 32.0399 4.1325 33.7376 5.74364 35.3648C5.54966 35.2174 5.36485 35.0668 5.1528 34.926C3.13767 33.5862 1.50643 31.3939 1.50643 31.3939C1.50643 31.3939 3.26572 34.816 3.32961 36.9965C3.36907 38.339 3.71833 39.7988 4.81143 41.2351C2.76677 39.83 1.12942 37.6384 1.12942 37.6384C1.12942 37.6384 2.96685 41.2125 3.03355 43.4899C3.06944 44.7081 3.34973 46.0186 4.16942 47.3253C2.24008 45.8687 0.752153 43.883 0.752153 43.883C0.752153 43.883 2.66774 47.6091 2.73724 49.9832C2.77033 51.1017 3.00301 52.2951 3.63993 53.4945C1.77372 52.0059 0.375141 50.1276 0.375141 50.1276C0.375141 50.1276 2.36864 54.0056 2.44119 56.4768C2.47123 57.5006 2.66291 58.5847 3.15804 59.68ZM8.38831 70.2492C4.36315 67.7171 3.76517 64.9377 3.70688 62.9518C3.69313 62.484 3.6193 61.9754 3.50628 61.4532C7.2639 64.1343 8.19434 67.9373 8.38831 70.2492ZM4.73278 29.2754C7.77762 31.4494 8.5324 34.5316 8.68997 36.407C5.42697 34.3531 4.94228 32.0989 4.89468 30.4882C4.88373 30.1096 4.82391 29.6978 4.73278 29.2754ZM4.48737 35.711C7.67476 37.9865 8.46494 41.2128 8.62964 43.1755C5.21415 41.026 4.70655 38.6668 4.65691 36.981C4.64545 36.5845 4.58334 36.1533 4.48737 35.711ZM8.60748 45.304C8.30608 44.7476 7.94308 44.1911 7.50116 43.6468C7.84864 43.8728 8.22794 44.0953 8.63295 44.3148C8.62455 44.6446 8.61588 44.9741 8.60748 45.304ZM8.44864 63.4808C4.57596 61.0443 4.00064 58.3701 3.94438 56.4592C3.93114 56.0091 3.86013 55.5198 3.75169 55.0176C7.36675 57.5974 8.26205 61.2561 8.44864 63.4808ZM3.99682 48.582C7.46933 51.0603 8.32975 54.575 8.50871 56.7124C4.78851 54.3716 4.23561 51.8023 4.1819 49.9666C4.16943 49.5344 4.10094 49.0644 3.99682 48.582ZM8.46544 51.0747C8.46035 51.2845 8.45526 51.4946 8.45017 51.7041C8.25924 51.3657 8.04338 51.029 7.80358 50.6936C8.01436 50.8217 8.23659 50.9485 8.46544 51.0747ZM4.24223 42.1464C7.57218 44.5234 8.39722 47.8938 8.56931 49.9438C5.00159 47.6988 4.47108 45.2344 4.4194 43.4736C4.40744 43.0594 4.34202 42.609 4.24223 42.1464ZM8.29361 58.105C8.21572 57.9717 8.14826 57.8384 8.06298 57.7055C8.13884 57.7492 8.22207 57.7921 8.29997 57.8355C8.29768 57.9255 8.29565 58.0153 8.29361 58.105ZM6.91337 36.3722C7.45457 36.7769 8.08411 37.1732 8.80732 37.5587C8.79561 38.0102 8.78391 38.4628 8.77219 38.9171C8.32798 38.056 7.72263 37.1879 6.91337 36.3722ZM4.97791 22.8398C7.8802 24.9125 8.60011 27.8504 8.7503 29.6387C5.63978 27.6803 5.17749 25.5313 5.13243 23.9955C5.12174 23.6348 5.06497 23.2424 4.97791 22.8398ZM5.22331 16.4043C7.98278 18.3756 8.66757 21.1694 8.81063 22.8703C5.85235 21.0077 5.41272 18.9635 5.36995 17.5029C5.36002 17.1598 5.30604 16.787 5.22331 16.4043ZM5.46846 9.9687C8.08563 11.8387 8.73528 14.4883 8.87097 16.1019C6.06516 14.3349 5.64818 12.3958 5.60745 11.0101C5.59778 10.6849 5.54686 10.3314 5.46846 9.9687ZM10.0376 11.0305C8.37533 8.75445 9.04686 6.84436 9.76829 5.53624C9.93758 5.22928 10.0832 4.88661 10.2087 4.52925C11.6373 6.86019 10.7945 9.48759 10.0376 11.0305ZM14.3904 11.0101C14.3497 12.3958 13.9327 14.3349 11.1269 16.1019C11.2628 14.4884 11.913 11.8387 14.5294 9.9687C14.4513 10.3314 14.4001 10.6849 14.3904 11.0101ZM14.6282 17.5029C14.5854 18.9635 14.1458 21.0075 11.1875 22.8703C11.3303 21.1696 12.0156 18.3756 14.7746 16.4043C14.6923 16.787 14.6384 17.1598 14.6282 17.5029ZM14.8657 23.9955C14.8206 25.5313 14.3583 27.6803 11.2478 29.6387C11.398 27.8506 12.1182 24.9127 15.02 22.8399C14.9331 23.2424 14.8764 23.6348 14.8657 23.9955ZM16.2912 62.9518C16.2327 64.9377 15.635 67.7171 11.6098 70.2492C11.8033 67.9377 12.7337 64.1344 16.4916 61.4532C16.3788 61.9754 16.3053 62.484 16.2912 62.9518ZM16.0013 48.5822C15.8969 49.0644 15.8287 49.5344 15.816 49.9666C15.762 51.8023 15.2093 54.3716 11.4892 56.7124C11.6684 54.5753 12.5288 51.0605 16.0013 48.5822ZM16.2467 55.0176C16.138 55.5199 16.067 56.0091 16.054 56.4592C15.998 58.3699 15.4227 61.0443 11.5497 63.4808C11.7358 61.2565 12.6314 57.5975 16.2467 55.0176ZM11.7045 58.105C11.7025 58.0153 11.7002 57.9255 11.6982 57.8355C11.7761 57.7921 11.8595 57.7492 11.9354 57.7055C11.8501 57.8384 11.7827 57.9717 11.7045 58.105ZM15.7559 42.1464C15.6558 42.6088 15.5907 43.0594 15.5785 43.4736C15.5271 45.2344 14.9965 47.6986 11.4288 49.944C11.6006 47.8943 12.4259 44.5236 15.7559 42.1464ZM12.1945 50.6936C11.9547 51.029 11.7389 51.3657 11.548 51.7041C11.5426 51.4946 11.5375 51.2847 11.5324 51.0748C11.7615 50.9485 11.9838 50.8217 12.1945 50.6936ZM11.3906 45.3042C11.382 44.9743 11.3736 44.6446 11.3649 44.3148C11.7697 44.0953 12.1492 43.8728 12.4967 43.6468C12.055 44.1911 11.6918 44.7478 11.3906 45.3042ZM15.341 36.981C15.2916 38.6668 14.7842 41.026 11.3688 43.1755C11.5335 41.2131 12.3236 37.9867 15.5108 35.711C15.415 36.1533 15.3524 36.5845 15.341 36.981ZM15.1034 30.4883C15.0558 32.0991 14.5712 34.3532 11.3082 36.4071C11.4655 34.5319 12.2208 31.4496 15.2654 29.2755C15.174 29.6978 15.1144 30.1096 15.1034 30.4883ZM13.0845 36.3725C12.2755 37.1881 11.6699 38.0561 11.2259 38.9171C11.2145 38.4628 11.2028 38.0102 11.1911 37.5587C11.9138 37.1734 12.5433 36.7771 13.0845 36.3725Z" fill="#2E7D32"/>
</svg>
