<svg width="164" height="562" viewBox="0 0 164 562" fill="none" xmlns="http://www.w3.org/2000/svg">
<path d="M34.3067 340.14L35.0276 526.874L32.7053 560.749L38.5573 561.149L40.7595 529.003L40.7654 529.005L81.8654 396.067L122.859 528.373L125.105 561.149L130.957 560.749L128.723 528.148H128.79L129.395 340.438L157.343 561.316L163.161 560.579L92.9943 6.04052H100.263V0.174805H63.4013V6.04052H70.6695L0.502441 560.581L6.32098 561.318L34.3067 340.14ZM99.1949 183.019L105.671 277.53L84.9598 221.516L99.1949 183.019ZM81.8339 213.06L66.6907 172.11H96.9751L81.8339 213.06ZM104.789 292.052H58.8788L81.8339 229.972L104.789 292.052ZM57.9944 277.532L64.4709 183.019L78.706 221.516L57.9944 277.532ZM76.6004 6.0425H87.0674L98.0466 166.245H65.6212L76.6004 6.0425ZM59.7416 166.245H56.3103L63.7972 107.079L59.7416 166.245ZM99.8706 107.083L107.355 166.245H103.924L99.8706 107.083ZM108.098 172.11L123.275 292.052H112.546L104.326 172.11H108.098ZM106.073 297.918L81.8615 376.235L57.5966 297.918H106.073ZM40.3911 292.052L55.5678 172.11H59.3398L51.1202 292.052H40.3911ZM123.188 447.33L112.949 297.916H123.671L123.188 447.33ZM84.9342 386.15L108.002 311.536L121.118 502.931L84.9342 386.15ZM78.7946 386.152L42.5086 503.52L55.6662 311.507L78.7946 386.152ZM40.5802 445.855L40.009 297.916H50.7183L40.5802 445.855Z" fill="#4D4D4D"/>
</svg>
