<svg width="362" height="736" viewBox="0 0 362 736" fill="none" xmlns="http://www.w3.org/2000/svg">
<path d="M75.3067 514.14L76.0276 700.874L73.7053 734.749L79.5573 735.149L81.7595 703.003L81.7654 703.005L122.865 570.067L163.859 702.373L166.105 735.149L171.957 734.749L169.723 702.148H169.79L170.395 514.438L198.343 735.316L204.161 734.579L133.994 180.041H141.263V174.175H104.401V180.041H111.67L41.5024 734.581L47.321 735.318L75.3067 514.14ZM140.195 357.019L146.671 451.53L125.96 395.516L140.195 357.019ZM122.834 387.06L107.691 346.11H137.975L122.834 387.06ZM145.789 466.052H99.8788L122.834 403.972L145.789 466.052ZM98.9944 451.532L105.471 357.019L119.706 395.516L98.9944 451.532ZM117.6 180.042H128.067L139.047 340.245H106.621L117.6 180.042ZM100.742 340.245H97.3103L104.797 281.079L100.742 340.245ZM140.871 281.083L148.355 340.245H144.924L140.871 281.083ZM149.098 346.11L164.275 466.052H153.546L145.326 346.11H149.098ZM147.073 471.918L122.861 550.235L98.5966 471.918H147.073ZM81.3911 466.052L96.5678 346.11H100.34L92.1202 466.052H81.3911ZM164.188 621.33L153.949 471.916H164.671L164.188 621.33ZM125.934 560.15L149.002 485.536L162.118 676.931L125.934 560.15ZM119.795 560.152L83.5086 677.52L96.6662 485.507L119.795 560.152ZM81.5802 619.855L81.009 471.916H91.7183L81.5802 619.855Z" fill="#4D4D4D"/>
<path d="M50.2139 147.23L13.6383 160.681L27.3751 203.165L64.8587 172.854C67.1259 175.479 69.5644 177.951 72.1644 180.248L47.1884 210.212L80.3269 240.138L97.617 195.186C100.869 196.322 104.214 197.26 107.647 197.953L101.011 236.334L144.672 245.681L137.169 198.109C140.61 197.455 143.968 196.568 147.23 195.469L160.681 232.044L203.166 218.308L172.854 180.825C175.48 178.558 177.952 176.119 180.248 173.519L210.212 198.493L240.138 165.355L195.185 148.065C196.321 144.813 197.259 141.469 197.952 138.035L236.334 144.671L245.68 101.009L198.108 108.512C197.454 105.071 196.568 101.712 195.468 98.4507L232.044 85.0017L218.307 42.5176L180.826 72.829C178.558 70.2035 176.12 67.7315 173.52 65.4349L198.494 35.472L165.355 5.54269L148.065 50.4948C144.813 49.3583 141.469 48.4207 138.036 47.7274L144.672 9.34615L101.011 0L108.513 47.5718C105.072 48.2257 101.714 49.1121 98.4522 50.2112L85.001 13.6381L42.5143 27.3747L72.8262 64.8577C70.2006 67.1248 67.7286 69.5633 65.4319 72.1633L35.4686 47.1877L5.54278 80.3257L50.4956 97.6155C49.3591 100.867 48.4215 104.212 47.7281 107.645L9.3463 101.009L0 144.671L47.5745 137.169C48.2284 140.61 49.1148 143.968 50.2139 147.23ZM49.5048 136.863L83.5001 131.502V124.919H115.081L87.731 140.71L84.2663 134.709L52.0477 146.556C50.992 143.411 50.1371 140.178 49.5048 136.863ZM52.3215 98.3187L84.4397 110.673L87.731 104.97L115.081 120.761H83.5001V113.83L49.6545 107.978C50.3242 104.673 51.2283 101.452 52.3215 98.3187ZM74.0553 66.3764L95.669 93.103L101.371 89.8117L117.163 117.161L89.813 101.37L93.2778 95.3681L66.9328 73.4121C69.1468 70.9106 71.5282 68.5627 74.0553 66.3764ZM108.817 49.506L114.178 83.5008H120.763V115.081L104.972 87.7317L110.974 84.267L99.1258 52.0489C102.27 50.9931 105.504 50.1383 108.817 49.506ZM147.362 52.3227L135.008 84.4403L140.71 87.7317L124.919 115.081V83.5008H131.849L137.701 49.6557C141.01 50.3254 144.23 51.2295 147.362 52.3227ZM179.307 74.0542L152.58 95.6675L155.871 101.37L128.522 117.161L144.313 89.8117L150.315 93.2763L172.271 66.9338C174.771 69.1477 177.121 71.5271 179.307 74.0542ZM196.178 108.817L162.182 114.179V120.763H130.6L157.949 104.972L161.414 110.974L193.633 99.1263C194.69 102.268 195.545 105.502 196.178 108.817ZM193.361 147.362L161.243 135.008L157.951 140.71L130.602 124.919H162.182V131.849L196.028 137.701C195.356 141.008 194.454 144.228 193.361 147.362ZM171.627 179.304L150.013 152.578L144.311 155.869L128.52 128.52L155.869 144.311L152.405 150.312L178.748 172.269C176.536 174.77 174.154 177.118 171.627 179.304ZM136.866 196.175L131.504 162.18H124.921V130.6L140.712 157.949L134.711 161.414L146.559 193.632C143.413 194.687 140.179 195.542 136.866 196.175ZM98.3202 193.358L110.674 161.24L104.972 157.949L120.763 130.6V162.18H113.834L107.982 196.025C104.673 195.355 101.452 194.451 98.3202 193.358ZM66.3754 171.624L93.1024 150.011L89.8111 144.309L117.161 128.518L101.369 155.867L95.3676 152.402L73.4112 178.745C70.9097 176.533 68.5618 174.152 66.3754 171.624Z" fill="#4D4D4D"/>
<path d="M201.973 120.558H262.959V108.827L361.09 96.7744V148.705L262.959 136.651V124.919H201.973V120.558Z" fill="#4D4D4D"/>
</svg>
